G75*
%MOIN*%
%OFA0B0*%
%FSLAX24Y24*%
%IPPOS*%
%LPD*%
%AMOC8*
5,1,8,0,0,1.08239X$1,22.5*
%
%ADD10C,0.0000*%
%ADD11C,0.0001*%
D10*
X001305Y000180D02*
X021305Y000180D01*
X022368Y001243D02*
X022368Y010680D01*
X020764Y011118D02*
X020766Y011155D01*
X020772Y011192D01*
X020781Y011227D01*
X020795Y011262D01*
X020811Y011295D01*
X020832Y011326D01*
X020855Y011355D01*
X020881Y011381D01*
X020910Y011404D01*
X020941Y011425D01*
X020974Y011441D01*
X021009Y011455D01*
X021044Y011464D01*
X021081Y011470D01*
X021118Y011472D01*
X021155Y011470D01*
X021192Y011464D01*
X021227Y011455D01*
X021262Y011441D01*
X021295Y011425D01*
X021326Y011404D01*
X021355Y011381D01*
X021381Y011355D01*
X021404Y011326D01*
X021425Y011295D01*
X021441Y011262D01*
X021455Y011227D01*
X021464Y011192D01*
X021470Y011155D01*
X021472Y011118D01*
X021470Y011081D01*
X021464Y011044D01*
X021455Y011009D01*
X021441Y010974D01*
X021425Y010941D01*
X021404Y010910D01*
X021381Y010881D01*
X021355Y010855D01*
X021326Y010832D01*
X021295Y010811D01*
X021262Y010795D01*
X021227Y010781D01*
X021192Y010772D01*
X021155Y010766D01*
X021118Y010764D01*
X021081Y010766D01*
X021044Y010772D01*
X021009Y010781D01*
X020974Y010795D01*
X020941Y010811D01*
X020910Y010832D01*
X020881Y010855D01*
X020855Y010881D01*
X020832Y010910D01*
X020811Y010941D01*
X020795Y010974D01*
X020781Y011009D01*
X020772Y011044D01*
X020766Y011081D01*
X020764Y011118D01*
X021305Y011743D02*
X001305Y011743D01*
X000243Y010680D02*
X000243Y001243D01*
X004376Y004555D02*
X004378Y004599D01*
X004384Y004643D01*
X004394Y004686D01*
X004407Y004728D01*
X004425Y004768D01*
X004446Y004807D01*
X004470Y004844D01*
X004497Y004879D01*
X004528Y004911D01*
X004561Y004940D01*
X004597Y004966D01*
X004635Y004988D01*
X004675Y005007D01*
X004716Y005023D01*
X004759Y005035D01*
X004802Y005043D01*
X004846Y005047D01*
X004890Y005047D01*
X004934Y005043D01*
X004977Y005035D01*
X005020Y005023D01*
X005061Y005007D01*
X005101Y004988D01*
X005139Y004966D01*
X005175Y004940D01*
X005208Y004911D01*
X005239Y004879D01*
X005266Y004844D01*
X005290Y004807D01*
X005311Y004768D01*
X005329Y004728D01*
X005342Y004686D01*
X005352Y004643D01*
X005358Y004599D01*
X005360Y004555D01*
X005358Y004511D01*
X005352Y004467D01*
X005342Y004424D01*
X005329Y004382D01*
X005311Y004342D01*
X005290Y004303D01*
X005266Y004266D01*
X005239Y004231D01*
X005208Y004199D01*
X005175Y004170D01*
X005139Y004144D01*
X005101Y004122D01*
X005061Y004103D01*
X005020Y004087D01*
X004977Y004075D01*
X004934Y004067D01*
X004890Y004063D01*
X004846Y004063D01*
X004802Y004067D01*
X004759Y004075D01*
X004716Y004087D01*
X004675Y004103D01*
X004635Y004122D01*
X004597Y004144D01*
X004561Y004170D01*
X004528Y004199D01*
X004497Y004231D01*
X004470Y004266D01*
X004446Y004303D01*
X004425Y004342D01*
X004407Y004382D01*
X004394Y004424D01*
X004384Y004467D01*
X004378Y004511D01*
X004376Y004555D01*
X010188Y005680D02*
X010190Y005724D01*
X010196Y005768D01*
X010206Y005811D01*
X010219Y005853D01*
X010237Y005893D01*
X010258Y005932D01*
X010282Y005969D01*
X010309Y006004D01*
X010340Y006036D01*
X010373Y006065D01*
X010409Y006091D01*
X010447Y006113D01*
X010487Y006132D01*
X010528Y006148D01*
X010571Y006160D01*
X010614Y006168D01*
X010658Y006172D01*
X010702Y006172D01*
X010746Y006168D01*
X010789Y006160D01*
X010832Y006148D01*
X010873Y006132D01*
X010913Y006113D01*
X010951Y006091D01*
X010987Y006065D01*
X011020Y006036D01*
X011051Y006004D01*
X011078Y005969D01*
X011102Y005932D01*
X011123Y005893D01*
X011141Y005853D01*
X011154Y005811D01*
X011164Y005768D01*
X011170Y005724D01*
X011172Y005680D01*
X011170Y005636D01*
X011164Y005592D01*
X011154Y005549D01*
X011141Y005507D01*
X011123Y005467D01*
X011102Y005428D01*
X011078Y005391D01*
X011051Y005356D01*
X011020Y005324D01*
X010987Y005295D01*
X010951Y005269D01*
X010913Y005247D01*
X010873Y005228D01*
X010832Y005212D01*
X010789Y005200D01*
X010746Y005192D01*
X010702Y005188D01*
X010658Y005188D01*
X010614Y005192D01*
X010571Y005200D01*
X010528Y005212D01*
X010487Y005228D01*
X010447Y005247D01*
X010409Y005269D01*
X010373Y005295D01*
X010340Y005324D01*
X010309Y005356D01*
X010282Y005391D01*
X010258Y005428D01*
X010237Y005467D01*
X010219Y005507D01*
X010206Y005549D01*
X010196Y005592D01*
X010190Y005636D01*
X010188Y005680D01*
X021264Y009805D02*
X021266Y009842D01*
X021272Y009879D01*
X021281Y009914D01*
X021295Y009949D01*
X021311Y009982D01*
X021332Y010013D01*
X021355Y010042D01*
X021381Y010068D01*
X021410Y010091D01*
X021441Y010112D01*
X021474Y010128D01*
X021509Y010142D01*
X021544Y010151D01*
X021581Y010157D01*
X021618Y010159D01*
X021655Y010157D01*
X021692Y010151D01*
X021727Y010142D01*
X021762Y010128D01*
X021795Y010112D01*
X021826Y010091D01*
X021855Y010068D01*
X021881Y010042D01*
X021904Y010013D01*
X021925Y009982D01*
X021941Y009949D01*
X021955Y009914D01*
X021964Y009879D01*
X021970Y009842D01*
X021972Y009805D01*
X021970Y009768D01*
X021964Y009731D01*
X021955Y009696D01*
X021941Y009661D01*
X021925Y009628D01*
X021904Y009597D01*
X021881Y009568D01*
X021855Y009542D01*
X021826Y009519D01*
X021795Y009498D01*
X021762Y009482D01*
X021727Y009468D01*
X021692Y009459D01*
X021655Y009453D01*
X021618Y009451D01*
X021581Y009453D01*
X021544Y009459D01*
X021509Y009468D01*
X021474Y009482D01*
X021441Y009498D01*
X021410Y009519D01*
X021381Y009542D01*
X021355Y009568D01*
X021332Y009597D01*
X021311Y009628D01*
X021295Y009661D01*
X021281Y009696D01*
X021272Y009731D01*
X021266Y009768D01*
X021264Y009805D01*
D11*
X022367Y010680D02*
X022364Y010744D01*
X022357Y010807D01*
X022347Y010870D01*
X022333Y010933D01*
X022315Y010994D01*
X022294Y011054D01*
X022269Y011113D01*
X022241Y011170D01*
X022209Y011226D01*
X022174Y011279D01*
X022136Y011331D01*
X022095Y011380D01*
X022051Y011426D01*
X022005Y011470D01*
X021956Y011511D01*
X021904Y011549D01*
X021851Y011584D01*
X021795Y011616D01*
X021738Y011644D01*
X021679Y011669D01*
X021619Y011690D01*
X021558Y011708D01*
X021495Y011722D01*
X021432Y011732D01*
X021369Y011739D01*
X021305Y011742D01*
X001305Y011742D02*
X001241Y011739D01*
X001178Y011732D01*
X001115Y011722D01*
X001052Y011708D01*
X000991Y011690D01*
X000931Y011669D01*
X000872Y011644D01*
X000815Y011616D01*
X000759Y011584D01*
X000706Y011549D01*
X000654Y011511D01*
X000605Y011470D01*
X000559Y011426D01*
X000515Y011380D01*
X000474Y011331D01*
X000436Y011279D01*
X000401Y011226D01*
X000369Y011170D01*
X000341Y011113D01*
X000316Y011054D01*
X000295Y010994D01*
X000277Y010933D01*
X000263Y010870D01*
X000253Y010807D01*
X000246Y010744D01*
X000243Y010680D01*
X000243Y001242D02*
X000246Y001178D01*
X000253Y001115D01*
X000263Y001052D01*
X000277Y000989D01*
X000295Y000928D01*
X000316Y000868D01*
X000341Y000809D01*
X000369Y000752D01*
X000401Y000696D01*
X000436Y000643D01*
X000474Y000591D01*
X000515Y000542D01*
X000559Y000496D01*
X000605Y000452D01*
X000654Y000411D01*
X000706Y000373D01*
X000759Y000338D01*
X000815Y000306D01*
X000872Y000278D01*
X000931Y000253D01*
X000991Y000232D01*
X001052Y000214D01*
X001115Y000200D01*
X001178Y000190D01*
X001241Y000183D01*
X001305Y000180D01*
X021305Y000180D02*
X021369Y000183D01*
X021432Y000190D01*
X021495Y000200D01*
X021558Y000214D01*
X021619Y000232D01*
X021679Y000253D01*
X021738Y000278D01*
X021795Y000306D01*
X021851Y000338D01*
X021904Y000373D01*
X021956Y000411D01*
X022005Y000452D01*
X022051Y000496D01*
X022095Y000542D01*
X022136Y000591D01*
X022174Y000643D01*
X022209Y000696D01*
X022241Y000752D01*
X022269Y000809D01*
X022294Y000868D01*
X022315Y000928D01*
X022333Y000989D01*
X022347Y001052D01*
X022357Y001115D01*
X022364Y001178D01*
X022367Y001242D01*
M02*
