%
M48
M72
T01C0.0236
T02C0.0315
T03C0.0320
T04C0.0354
T05C0.0360
T06C0.0400
T07C0.0709
T08C0.0984
%
T01
X10680Y9305
X10430Y8493
X10868Y3743
X8305Y4368
X1805Y4368
X618Y3618
X1618Y3368
X743Y2868
X7993Y5243
X13430Y1305
X11305Y1055
X9305Y1055
X7305Y1055
X4555Y6430
X2305Y2180
X680Y1555
X10555Y2618
X1368Y7930
X1118Y7680
X555Y7680
X868Y7930
X10743Y4680
X8868Y4680
X10618Y4118
X2743Y4618
X6930Y4243
X10243Y10118
X12868Y8555
X13555Y9493
X14618Y10243
X12305Y8868
X3805Y5118
X6055Y2180
X1180Y993
X4680Y2805
X12493Y2493
X12493Y2993
X8180Y6680
X13368Y6055
T02
X21680Y1493
X20899Y1493
X20118Y1493
X19336Y1493
X18555Y1493
X17774Y1493
X16993Y1493
X16211Y1493
X19336Y9118
X18336Y9118
X20336Y9118
T03
X19336Y10961
X6868Y8680
X5868Y8680
X4868Y8680
X3868Y8680
T04
X3743Y10805
T05
X743Y5368
X743Y6368
T06
X1805Y7493
X2805Y7493
X3805Y7493
X4805Y7493
X5805Y7493
X6805Y7493
X7805Y7493
X8805Y7493
X9805Y7493
X10805Y7493
X11805Y7493
X12805Y7493
X12805Y1493
X11805Y1493
X10805Y1493
X9805Y1493
X8805Y1493
X7805Y1493
X6805Y1493
X5805Y1493
X4805Y1493
X3805Y1493
X2805Y1493
X1805Y1493
X6305Y6493
X5305Y6493
T07
X21618Y9805
X21118Y11118
T08
X4868Y4555
X10680Y5680
M30
