G75*
%MOIN*%
%OFA0B0*%
%FSLAX24Y24*%
%IPPOS*%
%LPD*%
%AMOC8*
5,1,8,0,0,1.08239X$1,22.5*
%
%ADD10C,0.0040*%
%ADD11C,0.0000*%
%ADD12C,0.0001*%
%ADD13C,0.0070*%
%ADD14C,0.0283*%
%ADD15C,0.0030*%
%ADD16C,0.0120*%
%ADD17R,0.1187X0.4500*%
%ADD18R,0.0059X0.0118*%
%ADD19R,0.0118X0.0118*%
%ADD20C,0.0050*%
%ADD21C,0.0080*%
%ADD22C,0.0060*%
D10*
X015130Y010797D02*
X015284Y010950D01*
X015207Y010950D01*
X015207Y011027D01*
X015284Y011027D01*
X015284Y010950D01*
X014977Y010950D02*
X014670Y010950D01*
X014977Y011257D01*
X014977Y011334D01*
X014900Y011410D01*
X014746Y011410D01*
X014670Y011334D01*
X014516Y011027D02*
X014516Y010950D01*
X014439Y010950D01*
X014439Y011027D01*
X014516Y011027D01*
X014286Y010950D02*
X013979Y010950D01*
X014133Y010950D02*
X014133Y011410D01*
X013979Y011257D01*
X013365Y011257D02*
X013212Y010950D01*
X013058Y011257D01*
X012905Y011180D02*
X012905Y011103D01*
X012598Y011103D01*
X012598Y011027D02*
X012598Y011180D01*
X012675Y011257D01*
X012828Y011257D01*
X012905Y011180D01*
X012675Y010950D02*
X012598Y011027D01*
X012675Y010950D02*
X012828Y010950D01*
X012444Y010950D02*
X012291Y011103D01*
X012368Y011103D02*
X012138Y011103D01*
X012138Y010950D02*
X012138Y011410D01*
X012368Y011410D01*
X012444Y011334D01*
X012444Y011180D01*
X012368Y011103D01*
X010796Y010950D02*
X010490Y010950D01*
X010490Y011410D01*
X010336Y011410D02*
X010029Y010950D01*
X009799Y011103D02*
X009569Y011103D01*
X009569Y010950D02*
X009569Y011410D01*
X009799Y011410D01*
X009876Y011334D01*
X009876Y011180D01*
X009799Y011103D01*
X008955Y011257D02*
X008878Y011257D01*
X008725Y011103D01*
X008725Y010950D02*
X008725Y011257D01*
X008571Y011180D02*
X008495Y011257D01*
X008341Y011257D01*
X008264Y011180D01*
X008264Y011027D01*
X008341Y010950D01*
X008495Y010950D01*
X008571Y011027D01*
X008571Y011180D01*
X008111Y011257D02*
X007881Y011257D01*
X007804Y011180D01*
X007881Y011103D01*
X008034Y011103D01*
X008111Y011027D01*
X008034Y010950D01*
X007804Y010950D01*
X007650Y010950D02*
X007650Y011180D01*
X007574Y011257D01*
X007344Y011257D01*
X007344Y010950D01*
X007190Y011103D02*
X006883Y011103D01*
X006883Y011027D02*
X006883Y011180D01*
X006960Y011257D01*
X007113Y011257D01*
X007190Y011180D01*
X007190Y011103D01*
X007113Y010950D02*
X006960Y010950D01*
X006883Y011027D01*
X006730Y011027D02*
X006653Y010950D01*
X006500Y010950D01*
X006423Y011027D01*
X006500Y011180D02*
X006653Y011180D01*
X006730Y011103D01*
X006730Y011027D01*
X006500Y011180D02*
X006423Y011257D01*
X006423Y011334D01*
X006500Y011410D01*
X006653Y011410D01*
X006730Y011334D01*
X006269Y011180D02*
X005962Y011180D01*
X005809Y010950D02*
X005502Y010950D01*
X005655Y010950D02*
X005655Y011410D01*
X005502Y011257D01*
X005349Y011334D02*
X005272Y011410D01*
X005118Y011410D01*
X005042Y011334D01*
X005042Y011027D01*
X005349Y011334D01*
X005349Y011027D01*
X005272Y010950D01*
X005118Y010950D01*
X005042Y011027D01*
X004888Y010950D02*
X004581Y010950D01*
X004428Y010950D02*
X004121Y010950D01*
X004274Y010950D02*
X004274Y011410D01*
X004121Y011257D01*
X003967Y011334D02*
X003891Y011410D01*
X003737Y011410D01*
X003660Y011334D01*
X003660Y011027D01*
X003737Y010950D01*
X003891Y010950D01*
X003967Y011027D01*
X003507Y011027D02*
X003430Y010950D01*
X003277Y010950D01*
X003200Y011027D01*
X003200Y011334D01*
X003277Y011410D01*
X003430Y011410D01*
X003507Y011334D01*
X004581Y011257D02*
X004735Y011410D01*
X004735Y010950D01*
X015897Y011027D02*
X016204Y011334D01*
X016204Y011027D01*
X016128Y010950D01*
X015974Y010950D01*
X015897Y011027D01*
X015897Y011334D01*
X015974Y011410D01*
X016128Y011410D01*
X016204Y011334D01*
X016358Y011334D02*
X016358Y011257D01*
X016435Y011180D01*
X016588Y011180D01*
X016665Y011103D01*
X016665Y011027D01*
X016588Y010950D01*
X016435Y010950D01*
X016358Y011027D01*
X016358Y011103D01*
X016435Y011180D01*
X016588Y011180D02*
X016665Y011257D01*
X016665Y011334D01*
X016588Y011410D01*
X016435Y011410D01*
X016358Y011334D01*
X016818Y010950D02*
X017125Y011410D01*
X017279Y011334D02*
X017355Y011410D01*
X017509Y011410D01*
X017585Y011334D01*
X017585Y011257D01*
X017279Y010950D01*
X017585Y010950D01*
X017739Y011027D02*
X018046Y011334D01*
X018046Y011027D01*
X017969Y010950D01*
X017816Y010950D01*
X017739Y011027D01*
X017739Y011334D01*
X017816Y011410D01*
X017969Y011410D01*
X018046Y011334D01*
X018199Y011257D02*
X018353Y011410D01*
X018353Y010950D01*
X018506Y010950D02*
X018199Y010950D01*
X018660Y011180D02*
X018967Y011180D01*
X018890Y010950D02*
X018890Y011410D01*
X018660Y011180D01*
D11*
X021305Y000180D02*
X001305Y000180D01*
X000243Y001243D02*
X000243Y010680D01*
X001305Y011743D02*
X021305Y011743D01*
X020764Y011118D02*
X020766Y011155D01*
X020772Y011192D01*
X020781Y011227D01*
X020795Y011262D01*
X020811Y011295D01*
X020832Y011326D01*
X020855Y011355D01*
X020881Y011381D01*
X020910Y011404D01*
X020941Y011425D01*
X020974Y011441D01*
X021009Y011455D01*
X021044Y011464D01*
X021081Y011470D01*
X021118Y011472D01*
X021155Y011470D01*
X021192Y011464D01*
X021227Y011455D01*
X021262Y011441D01*
X021295Y011425D01*
X021326Y011404D01*
X021355Y011381D01*
X021381Y011355D01*
X021404Y011326D01*
X021425Y011295D01*
X021441Y011262D01*
X021455Y011227D01*
X021464Y011192D01*
X021470Y011155D01*
X021472Y011118D01*
X021470Y011081D01*
X021464Y011044D01*
X021455Y011009D01*
X021441Y010974D01*
X021425Y010941D01*
X021404Y010910D01*
X021381Y010881D01*
X021355Y010855D01*
X021326Y010832D01*
X021295Y010811D01*
X021262Y010795D01*
X021227Y010781D01*
X021192Y010772D01*
X021155Y010766D01*
X021118Y010764D01*
X021081Y010766D01*
X021044Y010772D01*
X021009Y010781D01*
X020974Y010795D01*
X020941Y010811D01*
X020910Y010832D01*
X020881Y010855D01*
X020855Y010881D01*
X020832Y010910D01*
X020811Y010941D01*
X020795Y010974D01*
X020781Y011009D01*
X020772Y011044D01*
X020766Y011081D01*
X020764Y011118D01*
X022368Y010680D02*
X022368Y001243D01*
X010188Y005680D02*
X010190Y005724D01*
X010196Y005768D01*
X010206Y005811D01*
X010219Y005853D01*
X010237Y005893D01*
X010258Y005932D01*
X010282Y005969D01*
X010309Y006004D01*
X010340Y006036D01*
X010373Y006065D01*
X010409Y006091D01*
X010447Y006113D01*
X010487Y006132D01*
X010528Y006148D01*
X010571Y006160D01*
X010614Y006168D01*
X010658Y006172D01*
X010702Y006172D01*
X010746Y006168D01*
X010789Y006160D01*
X010832Y006148D01*
X010873Y006132D01*
X010913Y006113D01*
X010951Y006091D01*
X010987Y006065D01*
X011020Y006036D01*
X011051Y006004D01*
X011078Y005969D01*
X011102Y005932D01*
X011123Y005893D01*
X011141Y005853D01*
X011154Y005811D01*
X011164Y005768D01*
X011170Y005724D01*
X011172Y005680D01*
X011170Y005636D01*
X011164Y005592D01*
X011154Y005549D01*
X011141Y005507D01*
X011123Y005467D01*
X011102Y005428D01*
X011078Y005391D01*
X011051Y005356D01*
X011020Y005324D01*
X010987Y005295D01*
X010951Y005269D01*
X010913Y005247D01*
X010873Y005228D01*
X010832Y005212D01*
X010789Y005200D01*
X010746Y005192D01*
X010702Y005188D01*
X010658Y005188D01*
X010614Y005192D01*
X010571Y005200D01*
X010528Y005212D01*
X010487Y005228D01*
X010447Y005247D01*
X010409Y005269D01*
X010373Y005295D01*
X010340Y005324D01*
X010309Y005356D01*
X010282Y005391D01*
X010258Y005428D01*
X010237Y005467D01*
X010219Y005507D01*
X010206Y005549D01*
X010196Y005592D01*
X010190Y005636D01*
X010188Y005680D01*
X004376Y004555D02*
X004378Y004599D01*
X004384Y004643D01*
X004394Y004686D01*
X004407Y004728D01*
X004425Y004768D01*
X004446Y004807D01*
X004470Y004844D01*
X004497Y004879D01*
X004528Y004911D01*
X004561Y004940D01*
X004597Y004966D01*
X004635Y004988D01*
X004675Y005007D01*
X004716Y005023D01*
X004759Y005035D01*
X004802Y005043D01*
X004846Y005047D01*
X004890Y005047D01*
X004934Y005043D01*
X004977Y005035D01*
X005020Y005023D01*
X005061Y005007D01*
X005101Y004988D01*
X005139Y004966D01*
X005175Y004940D01*
X005208Y004911D01*
X005239Y004879D01*
X005266Y004844D01*
X005290Y004807D01*
X005311Y004768D01*
X005329Y004728D01*
X005342Y004686D01*
X005352Y004643D01*
X005358Y004599D01*
X005360Y004555D01*
X005358Y004511D01*
X005352Y004467D01*
X005342Y004424D01*
X005329Y004382D01*
X005311Y004342D01*
X005290Y004303D01*
X005266Y004266D01*
X005239Y004231D01*
X005208Y004199D01*
X005175Y004170D01*
X005139Y004144D01*
X005101Y004122D01*
X005061Y004103D01*
X005020Y004087D01*
X004977Y004075D01*
X004934Y004067D01*
X004890Y004063D01*
X004846Y004063D01*
X004802Y004067D01*
X004759Y004075D01*
X004716Y004087D01*
X004675Y004103D01*
X004635Y004122D01*
X004597Y004144D01*
X004561Y004170D01*
X004528Y004199D01*
X004497Y004231D01*
X004470Y004266D01*
X004446Y004303D01*
X004425Y004342D01*
X004407Y004382D01*
X004394Y004424D01*
X004384Y004467D01*
X004378Y004511D01*
X004376Y004555D01*
X021264Y009805D02*
X021266Y009842D01*
X021272Y009879D01*
X021281Y009914D01*
X021295Y009949D01*
X021311Y009982D01*
X021332Y010013D01*
X021355Y010042D01*
X021381Y010068D01*
X021410Y010091D01*
X021441Y010112D01*
X021474Y010128D01*
X021509Y010142D01*
X021544Y010151D01*
X021581Y010157D01*
X021618Y010159D01*
X021655Y010157D01*
X021692Y010151D01*
X021727Y010142D01*
X021762Y010128D01*
X021795Y010112D01*
X021826Y010091D01*
X021855Y010068D01*
X021881Y010042D01*
X021904Y010013D01*
X021925Y009982D01*
X021941Y009949D01*
X021955Y009914D01*
X021964Y009879D01*
X021970Y009842D01*
X021972Y009805D01*
X021970Y009768D01*
X021964Y009731D01*
X021955Y009696D01*
X021941Y009661D01*
X021925Y009628D01*
X021904Y009597D01*
X021881Y009568D01*
X021855Y009542D01*
X021826Y009519D01*
X021795Y009498D01*
X021762Y009482D01*
X021727Y009468D01*
X021692Y009459D01*
X021655Y009453D01*
X021618Y009451D01*
X021581Y009453D01*
X021544Y009459D01*
X021509Y009468D01*
X021474Y009482D01*
X021441Y009498D01*
X021410Y009519D01*
X021381Y009542D01*
X021355Y009568D01*
X021332Y009597D01*
X021311Y009628D01*
X021295Y009661D01*
X021281Y009696D01*
X021272Y009731D01*
X021266Y009768D01*
X021264Y009805D01*
D12*
X022367Y010680D02*
X022364Y010744D01*
X022357Y010807D01*
X022347Y010870D01*
X022333Y010933D01*
X022315Y010994D01*
X022294Y011054D01*
X022269Y011113D01*
X022241Y011170D01*
X022209Y011226D01*
X022174Y011279D01*
X022136Y011331D01*
X022095Y011380D01*
X022051Y011426D01*
X022005Y011470D01*
X021956Y011511D01*
X021904Y011549D01*
X021851Y011584D01*
X021795Y011616D01*
X021738Y011644D01*
X021679Y011669D01*
X021619Y011690D01*
X021558Y011708D01*
X021495Y011722D01*
X021432Y011732D01*
X021369Y011739D01*
X021305Y011742D01*
X001305Y011742D02*
X001241Y011739D01*
X001178Y011732D01*
X001115Y011722D01*
X001052Y011708D01*
X000991Y011690D01*
X000931Y011669D01*
X000872Y011644D01*
X000815Y011616D01*
X000759Y011584D01*
X000706Y011549D01*
X000654Y011511D01*
X000605Y011470D01*
X000559Y011426D01*
X000515Y011380D01*
X000474Y011331D01*
X000436Y011279D01*
X000401Y011226D01*
X000369Y011170D01*
X000341Y011113D01*
X000316Y011054D01*
X000295Y010994D01*
X000277Y010933D01*
X000263Y010870D01*
X000253Y010807D01*
X000246Y010744D01*
X000243Y010680D01*
X000243Y001242D02*
X000246Y001178D01*
X000253Y001115D01*
X000263Y001052D01*
X000277Y000989D01*
X000295Y000928D01*
X000316Y000868D01*
X000341Y000809D01*
X000369Y000752D01*
X000401Y000696D01*
X000436Y000643D01*
X000474Y000591D01*
X000515Y000542D01*
X000559Y000496D01*
X000605Y000452D01*
X000654Y000411D01*
X000706Y000373D01*
X000759Y000338D01*
X000815Y000306D01*
X000872Y000278D01*
X000931Y000253D01*
X000991Y000232D01*
X001052Y000214D01*
X001115Y000200D01*
X001178Y000190D01*
X001241Y000183D01*
X001305Y000180D01*
X021305Y000180D02*
X021369Y000183D01*
X021432Y000190D01*
X021495Y000200D01*
X021558Y000214D01*
X021619Y000232D01*
X021679Y000253D01*
X021738Y000278D01*
X021795Y000306D01*
X021851Y000338D01*
X021904Y000373D01*
X021956Y000411D01*
X022005Y000452D01*
X022051Y000496D01*
X022095Y000542D01*
X022136Y000591D01*
X022174Y000643D01*
X022209Y000696D01*
X022241Y000752D01*
X022269Y000809D01*
X022294Y000868D01*
X022315Y000928D01*
X022333Y000989D01*
X022347Y001052D01*
X022357Y001115D01*
X022364Y001178D01*
X022367Y001242D01*
D13*
X010084Y004325D02*
X008133Y002373D01*
X006280Y004226D01*
X006280Y004423D01*
X008133Y006276D01*
X010084Y004325D01*
D14*
X006605Y004325D03*
D15*
X005575Y003638D02*
X005531Y003682D01*
X005357Y003507D01*
X005314Y003378D02*
X005227Y003378D01*
X005140Y003291D01*
X005140Y003203D01*
X005314Y003029D01*
X005402Y003029D01*
X005489Y003116D01*
X005489Y003203D01*
X005575Y003289D02*
X005618Y003246D01*
X005575Y003289D02*
X005575Y003638D01*
X004594Y003438D02*
X004400Y003438D01*
X004497Y003438D02*
X004497Y003728D01*
X004400Y003631D01*
X004299Y003679D02*
X004251Y003728D01*
X004154Y003728D01*
X004106Y003679D01*
X004106Y003486D01*
X004154Y003438D01*
X004251Y003438D01*
X004299Y003486D01*
X003488Y004885D02*
X003295Y004885D01*
X003391Y004885D02*
X003391Y005175D01*
X003295Y005078D01*
X003193Y005030D02*
X003145Y004982D01*
X003000Y004982D01*
X003097Y004982D02*
X003193Y004885D01*
X003193Y005030D02*
X003193Y005127D01*
X003145Y005175D01*
X003000Y005175D01*
X003000Y004885D01*
X002545Y005613D02*
X002449Y005613D01*
X002400Y005661D01*
X002400Y005709D01*
X002449Y005758D01*
X002545Y005758D01*
X002594Y005709D01*
X002594Y005661D01*
X002545Y005613D01*
X002545Y005758D02*
X002594Y005806D01*
X002594Y005854D01*
X002545Y005903D01*
X002449Y005903D01*
X002400Y005854D01*
X002400Y005806D01*
X002449Y005758D01*
X002299Y005854D02*
X002251Y005903D01*
X002154Y005903D01*
X002106Y005854D01*
X002106Y005661D01*
X002154Y005613D01*
X002251Y005613D01*
X002299Y005661D01*
X001453Y005760D02*
X001356Y005856D01*
X001162Y005856D01*
X001356Y005663D02*
X001453Y005760D01*
X001356Y005663D02*
X001162Y005663D01*
X001211Y005562D02*
X001259Y005562D01*
X001307Y005513D01*
X001356Y005562D01*
X001404Y005562D01*
X001453Y005513D01*
X001453Y005417D01*
X001404Y005368D01*
X001307Y005465D02*
X001307Y005513D01*
X001211Y005562D02*
X001162Y005513D01*
X001162Y005417D01*
X001211Y005368D01*
X001501Y005267D02*
X001501Y005074D01*
X001307Y004972D02*
X001307Y004779D01*
X001211Y004876D02*
X001404Y004876D01*
X001162Y004678D02*
X001162Y004484D01*
X001162Y004581D02*
X001453Y004581D01*
X001453Y004383D02*
X001259Y004383D01*
X001162Y004286D01*
X001259Y004190D01*
X001453Y004190D01*
X001404Y004088D02*
X001356Y004088D01*
X001307Y004040D01*
X001307Y003895D01*
X001162Y003895D02*
X001162Y004040D01*
X001211Y004088D01*
X001259Y004088D01*
X001307Y004040D01*
X001404Y004088D02*
X001453Y004040D01*
X001453Y003895D01*
X001162Y003895D01*
X001307Y004190D02*
X001307Y004383D01*
X005439Y005655D02*
X005536Y005655D01*
X005488Y005655D02*
X005488Y005945D01*
X005536Y005945D02*
X005439Y005945D01*
X005636Y005897D02*
X005684Y005945D01*
X005781Y005945D01*
X005829Y005897D01*
X005829Y005848D01*
X005636Y005655D01*
X005829Y005655D01*
X005930Y005703D02*
X005979Y005655D01*
X006075Y005655D01*
X006124Y005703D01*
X005930Y005703D02*
X005930Y005897D01*
X005979Y005945D01*
X006075Y005945D01*
X006124Y005897D01*
X008929Y006295D02*
X009066Y006158D01*
X009134Y006158D01*
X009203Y006227D01*
X009203Y006295D01*
X009274Y006367D02*
X009343Y006367D01*
X009411Y006435D01*
X009411Y006503D01*
X009377Y006538D01*
X009309Y006538D01*
X009206Y006435D01*
X009274Y006367D01*
X009206Y006435D02*
X009206Y006572D01*
X009240Y006674D01*
X009066Y006432D02*
X008998Y006432D01*
X008929Y006364D01*
X008929Y006295D01*
X012483Y006010D02*
X012483Y005720D01*
X012483Y005817D02*
X012628Y005817D01*
X012676Y005865D01*
X012676Y005962D01*
X012628Y006010D01*
X012483Y006010D01*
X012579Y005817D02*
X012676Y005720D01*
X012777Y005720D02*
X012971Y005913D01*
X012971Y005962D01*
X012922Y006010D01*
X012826Y006010D01*
X012777Y005962D01*
X012777Y005720D02*
X012971Y005720D01*
X014720Y005713D02*
X014720Y005568D01*
X015010Y005568D01*
X014913Y005568D02*
X014913Y005713D01*
X014865Y005762D01*
X014768Y005762D01*
X014720Y005713D01*
X014913Y005665D02*
X015010Y005762D01*
X014962Y005863D02*
X015010Y005911D01*
X015010Y006008D01*
X014962Y006056D01*
X014913Y006056D01*
X014865Y006008D01*
X014865Y005863D01*
X014962Y005863D01*
X014865Y005863D02*
X014768Y005960D01*
X014720Y006056D01*
X014757Y006579D02*
X015048Y006579D01*
X015048Y006772D01*
X015048Y006874D02*
X014757Y006874D01*
X014757Y007067D01*
X014757Y007168D02*
X014757Y007313D01*
X014806Y007362D01*
X014999Y007362D01*
X015048Y007313D01*
X015048Y007168D01*
X014757Y007168D01*
X015048Y007067D02*
X015048Y006874D01*
X014902Y006874D02*
X014902Y006970D01*
X014854Y007463D02*
X014757Y007560D01*
X015048Y007560D01*
X015048Y007656D02*
X015048Y007463D01*
X015047Y007970D02*
X015047Y008260D01*
X014902Y008115D01*
X015096Y008115D01*
X014801Y008115D02*
X014753Y008067D01*
X014608Y008067D01*
X014704Y008067D02*
X014801Y007970D01*
X014801Y008115D02*
X014801Y008212D01*
X014753Y008260D01*
X014608Y008260D01*
X014608Y007970D01*
X014297Y009845D02*
X014201Y009845D01*
X014152Y009893D01*
X014152Y009990D02*
X014249Y010038D01*
X014297Y010038D01*
X014346Y009990D01*
X014346Y009893D01*
X014297Y009845D01*
X014152Y009990D02*
X014152Y010135D01*
X014346Y010135D01*
X014051Y010087D02*
X014051Y009990D01*
X014003Y009942D01*
X013858Y009942D01*
X013954Y009942D02*
X014051Y009845D01*
X013858Y009845D02*
X013858Y010135D01*
X014003Y010135D01*
X014051Y010087D01*
X011469Y010375D02*
X011275Y010375D01*
X011469Y010568D01*
X011469Y010617D01*
X011420Y010665D01*
X011324Y010665D01*
X011275Y010617D01*
X011174Y010617D02*
X011126Y010665D01*
X011029Y010665D01*
X010981Y010617D01*
X010981Y010423D01*
X011029Y010375D01*
X011126Y010375D01*
X011174Y010423D01*
X008280Y010440D02*
X008086Y010440D01*
X008231Y010585D01*
X008231Y010295D01*
X007985Y010343D02*
X007937Y010295D01*
X007840Y010295D01*
X007792Y010343D01*
X007792Y010537D01*
X007840Y010585D01*
X007937Y010585D01*
X007985Y010537D01*
X007692Y010585D02*
X007595Y010585D01*
X007643Y010585D02*
X007643Y010295D01*
X007595Y010295D02*
X007692Y010295D01*
X007626Y009853D02*
X007529Y009853D01*
X007481Y009804D01*
X007481Y009611D01*
X007529Y009563D01*
X007626Y009563D01*
X007674Y009611D01*
X007775Y009611D02*
X007824Y009563D01*
X007920Y009563D01*
X007969Y009611D01*
X007969Y009659D01*
X007920Y009708D01*
X007872Y009708D01*
X007920Y009708D02*
X007969Y009756D01*
X007969Y009804D01*
X007920Y009853D01*
X007824Y009853D01*
X007775Y009804D01*
X007674Y009804D02*
X007626Y009853D01*
X005719Y009225D02*
X005525Y009225D01*
X005622Y009225D02*
X005622Y009515D01*
X005525Y009418D01*
X005424Y009322D02*
X005424Y009515D01*
X005231Y009515D02*
X005231Y009322D01*
X005327Y009225D01*
X005424Y009322D01*
X005130Y009322D02*
X005081Y009370D01*
X004984Y009370D01*
X004936Y009418D01*
X004936Y009467D01*
X004984Y009515D01*
X005081Y009515D01*
X005130Y009467D01*
X005130Y009322D02*
X005130Y009273D01*
X005081Y009225D01*
X004984Y009225D01*
X004936Y009273D01*
X004604Y009608D02*
X004653Y009656D01*
X004653Y009753D01*
X004604Y009801D01*
X004556Y009801D01*
X004507Y009753D01*
X004507Y009656D01*
X004459Y009608D01*
X004411Y009608D01*
X004362Y009656D01*
X004362Y009753D01*
X004411Y009801D01*
X004604Y009902D02*
X004653Y009951D01*
X004653Y009999D01*
X004604Y010047D01*
X004362Y010047D01*
X004362Y009999D02*
X004362Y010096D01*
X004459Y010197D02*
X004362Y010294D01*
X004653Y010294D01*
X004653Y010390D02*
X004653Y010197D01*
X003920Y011175D02*
X003824Y011175D01*
X003775Y011223D01*
X003674Y011223D02*
X003626Y011175D01*
X003529Y011175D01*
X003481Y011223D01*
X003481Y011417D01*
X003529Y011465D01*
X003626Y011465D01*
X003674Y011417D01*
X003775Y011417D02*
X003775Y011368D01*
X003824Y011320D01*
X003969Y011320D01*
X003969Y011223D02*
X003969Y011417D01*
X003920Y011465D01*
X003824Y011465D01*
X003775Y011417D01*
X003969Y011223D02*
X003920Y011175D01*
X000781Y010625D02*
X000588Y010625D01*
X000685Y010625D02*
X000685Y010915D01*
X000588Y010818D01*
X000293Y010915D02*
X000293Y010625D01*
X000487Y010625D01*
X002222Y008228D02*
X002319Y008228D01*
X002270Y008228D02*
X002270Y007938D01*
X002222Y007938D02*
X002319Y007938D01*
X002418Y007986D02*
X002467Y007938D01*
X002563Y007938D01*
X002612Y007986D01*
X002713Y007938D02*
X002906Y008131D01*
X002906Y008179D01*
X002858Y008228D01*
X002761Y008228D01*
X002713Y008179D01*
X002612Y008179D02*
X002563Y008228D01*
X002467Y008228D01*
X002418Y008179D01*
X002418Y007986D01*
X002713Y007938D02*
X002906Y007938D01*
X001140Y007706D02*
X000850Y007706D01*
X000850Y007609D02*
X000850Y007803D01*
X000995Y007904D02*
X000995Y008097D01*
X000995Y007508D02*
X000995Y007315D01*
X000947Y007315D02*
X000850Y007411D01*
X000947Y007508D01*
X001140Y007508D01*
X001140Y007315D02*
X000947Y007315D01*
X000947Y007213D02*
X000898Y007213D01*
X000850Y007165D01*
X000850Y007020D01*
X001140Y007020D01*
X001140Y007165D01*
X001092Y007213D01*
X001043Y007213D01*
X000995Y007165D01*
X000995Y007020D01*
X000995Y007165D02*
X000947Y007213D01*
X009820Y008493D02*
X009868Y008445D01*
X009965Y008445D01*
X010013Y008493D01*
X010115Y008590D02*
X010308Y008590D01*
X010260Y008445D02*
X010260Y008735D01*
X010115Y008590D01*
X010013Y008687D02*
X009965Y008735D01*
X009868Y008735D01*
X009820Y008687D01*
X009820Y008493D01*
X010388Y004486D02*
X010484Y004486D01*
X010436Y004486D02*
X010436Y004196D01*
X010388Y004196D02*
X010484Y004196D01*
X010584Y004244D02*
X010633Y004196D01*
X010729Y004196D01*
X010778Y004244D01*
X010879Y004196D02*
X011072Y004196D01*
X010976Y004196D02*
X010976Y004486D01*
X010879Y004389D01*
X010778Y004437D02*
X010729Y004486D01*
X010633Y004486D01*
X010584Y004437D01*
X010584Y004244D01*
X011287Y003583D02*
X011287Y003390D01*
X011335Y003342D01*
X011432Y003342D01*
X011480Y003390D01*
X011581Y003390D02*
X011630Y003342D01*
X011727Y003342D01*
X011775Y003390D01*
X011775Y003487D01*
X011727Y003535D01*
X011678Y003535D01*
X011581Y003487D01*
X011581Y003632D01*
X011775Y003632D01*
X011480Y003583D02*
X011432Y003632D01*
X011335Y003632D01*
X011287Y003583D01*
X012733Y003567D02*
X012878Y003567D01*
X012926Y003615D01*
X012926Y003712D01*
X012878Y003760D01*
X012733Y003760D01*
X012733Y003470D01*
X012829Y003567D02*
X012926Y003470D01*
X013027Y003518D02*
X013076Y003470D01*
X013172Y003470D01*
X013221Y003518D01*
X013221Y003567D01*
X013172Y003615D01*
X013124Y003615D01*
X013172Y003615D02*
X013221Y003663D01*
X013221Y003712D01*
X013172Y003760D01*
X013076Y003760D01*
X013027Y003712D01*
X015062Y003743D02*
X015111Y003695D01*
X015304Y003695D01*
X015353Y003743D01*
X015353Y003840D01*
X015304Y003889D01*
X015207Y003889D01*
X015207Y003792D01*
X015111Y003889D02*
X015062Y003840D01*
X015062Y003743D01*
X015062Y003595D02*
X015062Y003499D01*
X015062Y003547D02*
X015353Y003547D01*
X015353Y003499D02*
X015353Y003595D01*
X015062Y003397D02*
X015062Y003204D01*
X015353Y003204D01*
X015353Y003103D02*
X015062Y003103D01*
X015207Y003204D02*
X015207Y003301D01*
X015353Y003103D02*
X015062Y002909D01*
X015353Y002909D01*
X015304Y002808D02*
X015111Y002808D01*
X015062Y002760D01*
X015062Y002663D01*
X015111Y002615D01*
X015304Y002615D01*
X015353Y002663D01*
X015353Y002760D01*
X015304Y002808D01*
X015304Y002513D02*
X015353Y002465D01*
X015353Y002368D01*
X015304Y002320D01*
X015111Y002320D01*
X015062Y002368D01*
X015062Y002465D01*
X015111Y002513D01*
X018892Y010006D02*
X018892Y010200D01*
X018989Y010296D01*
X019086Y010200D01*
X019086Y010006D01*
X019187Y010006D02*
X019187Y010296D01*
X019380Y010006D01*
X019380Y010296D01*
X019482Y010296D02*
X019675Y010296D01*
X019578Y010296D02*
X019578Y010006D01*
X019086Y010151D02*
X018892Y010151D01*
D16*
X015493Y009118D02*
X015493Y001493D01*
X022305Y001493D01*
X022305Y009118D01*
X015493Y009118D01*
X012430Y009523D02*
X012430Y009837D01*
X017368Y005243D02*
X019805Y005243D01*
X019805Y002993D01*
X017805Y002993D01*
X017368Y003430D01*
X017368Y005243D01*
D17*
X021211Y005243D03*
D18*
X014479Y007302D03*
X014006Y007302D03*
D19*
X014243Y007302D03*
D20*
X013217Y009129D02*
X012745Y009129D01*
X012745Y009483D01*
X012587Y009365D02*
X012587Y009995D01*
X012273Y009995D01*
X012273Y009365D01*
X012587Y009365D01*
X012745Y009129D02*
X012115Y009129D01*
X012115Y009483D01*
X012115Y009129D02*
X011643Y009129D01*
X011643Y010231D01*
X012115Y010231D01*
X012115Y009877D01*
X012194Y009995D02*
X012194Y010152D01*
X012351Y010152D01*
X012115Y010231D02*
X012745Y010231D01*
X012745Y009877D01*
X012745Y010231D02*
X013217Y010231D01*
X013217Y009129D01*
X009511Y009143D02*
X008724Y009143D01*
X007532Y008905D02*
X007532Y008455D01*
X007382Y008455D02*
X007682Y008455D01*
X007382Y008755D02*
X007532Y008905D01*
X008481Y010780D02*
X008483Y010793D01*
X008488Y010805D01*
X008497Y010815D01*
X008508Y010822D01*
X008520Y010826D01*
X008534Y010826D01*
X008546Y010822D01*
X008557Y010815D01*
X008566Y010805D01*
X008571Y010793D01*
X008573Y010780D01*
X008571Y010767D01*
X008566Y010755D01*
X008557Y010745D01*
X008546Y010738D01*
X008534Y010734D01*
X008520Y010734D01*
X008508Y010738D01*
X008497Y010745D01*
X008488Y010755D01*
X008483Y010767D01*
X008481Y010780D01*
X002870Y008905D02*
X002870Y008455D01*
X002945Y008680D02*
X002645Y008680D01*
X002870Y008905D01*
D21*
X003055Y007993D02*
X002555Y007993D01*
X002305Y007743D01*
X002055Y007993D01*
X001555Y007993D01*
X001305Y007743D01*
X001305Y007243D01*
X001555Y006993D01*
X002055Y006993D01*
X002305Y007243D01*
X002555Y006993D01*
X003055Y006993D01*
X003305Y007243D01*
X003555Y006993D01*
X004055Y006993D01*
X004305Y007243D01*
X004555Y006993D01*
X005055Y006993D01*
X005555Y006993D01*
X005805Y006743D01*
X006055Y006993D01*
X006555Y006993D01*
X006805Y006743D01*
X006805Y006243D01*
X006555Y005993D01*
X006055Y005993D01*
X005805Y006243D01*
X005555Y005993D01*
X005055Y005993D01*
X004805Y006243D01*
X004805Y006743D01*
X005055Y006993D01*
X005305Y007243D01*
X005555Y006993D01*
X006055Y006993D01*
X006305Y007243D01*
X006555Y006993D01*
X007055Y006993D01*
X007305Y007243D01*
X007555Y006993D01*
X008055Y006993D01*
X008305Y007243D01*
X008555Y006993D01*
X009055Y006993D01*
X009305Y007243D01*
X009555Y006993D01*
X010055Y006993D01*
X010305Y007243D01*
X010555Y006993D01*
X011055Y006993D01*
X011305Y007243D01*
X011555Y006993D01*
X012055Y006993D01*
X012305Y007243D01*
X012555Y006993D01*
X013055Y006993D01*
X013305Y007243D01*
X013305Y007743D01*
X013055Y007993D01*
X012555Y007993D01*
X012305Y007743D01*
X012055Y007993D01*
X011555Y007993D01*
X011305Y007743D01*
X011055Y007993D01*
X010555Y007993D01*
X010305Y007743D01*
X010055Y007993D01*
X009555Y007993D01*
X009305Y007743D01*
X009055Y007993D01*
X008555Y007993D01*
X008305Y007743D01*
X008055Y007993D01*
X007555Y007993D01*
X007305Y007743D01*
X007055Y007993D01*
X006555Y007993D01*
X006305Y007743D01*
X006055Y007993D01*
X005555Y007993D01*
X005305Y007743D01*
X005055Y007993D01*
X004555Y007993D01*
X004305Y007743D01*
X004055Y007993D01*
X003555Y007993D01*
X003305Y007743D01*
X003055Y007993D01*
X013554Y004299D02*
X013750Y004299D01*
X013554Y004299D02*
X013554Y001936D01*
X013750Y001936D01*
X013305Y001743D02*
X013055Y001993D01*
X012555Y001993D01*
X012305Y001743D01*
X012055Y001993D01*
X011555Y001993D01*
X011305Y001743D01*
X011055Y001993D01*
X010555Y001993D01*
X010305Y001743D01*
X010055Y001993D01*
X009555Y001993D01*
X009305Y001743D01*
X009055Y001993D01*
X008555Y001993D01*
X008305Y001743D01*
X008055Y001993D01*
X007555Y001993D01*
X007305Y001743D01*
X007055Y001993D01*
X006555Y001993D01*
X006305Y001743D01*
X006055Y001993D01*
X005555Y001993D01*
X005305Y001743D01*
X005055Y001993D01*
X004555Y001993D01*
X004305Y001743D01*
X004055Y001993D01*
X003555Y001993D01*
X003305Y001743D01*
X003055Y001993D01*
X002555Y001993D01*
X002305Y001743D01*
X002055Y001993D01*
X001555Y001993D01*
X001305Y001743D01*
X001305Y001243D01*
X001555Y000993D01*
X002055Y000993D01*
X002305Y001243D01*
X002555Y000993D01*
X003055Y000993D01*
X003305Y001243D01*
X003555Y000993D01*
X004055Y000993D01*
X004305Y001243D01*
X004555Y000993D01*
X005055Y000993D01*
X005305Y001243D01*
X005555Y000993D01*
X006055Y000993D01*
X006305Y001243D01*
X006555Y000993D01*
X007055Y000993D01*
X007305Y001243D01*
X007555Y000993D01*
X008055Y000993D01*
X008305Y001243D01*
X008555Y000993D01*
X009055Y000993D01*
X009305Y001243D01*
X009555Y000993D01*
X010055Y000993D01*
X010305Y001243D01*
X010555Y000993D01*
X011055Y000993D01*
X011305Y001243D01*
X011555Y000993D01*
X012055Y000993D01*
X012305Y001243D01*
X012555Y000993D01*
X013055Y000993D01*
X013305Y001243D01*
X013305Y001743D01*
X014735Y001936D02*
X014931Y001936D01*
X014931Y004299D01*
X014735Y004299D01*
X014538Y003590D02*
X014538Y002625D01*
X013947Y002625D02*
X013947Y003610D01*
D22*
X007368Y008180D02*
X006468Y008180D01*
X006368Y008280D01*
X006268Y008180D01*
X005468Y008180D01*
X005368Y008280D01*
X005268Y008180D01*
X004468Y008180D01*
X004368Y008280D01*
X004268Y008180D01*
X003405Y008180D01*
X003368Y008180D02*
X003368Y009180D01*
X003405Y009180D02*
X004268Y009180D01*
X004368Y009080D01*
X004468Y009180D01*
X005268Y009180D01*
X005368Y009080D01*
X005468Y009180D01*
X006268Y009180D01*
X006368Y009080D01*
X006468Y009180D01*
X007368Y009180D01*
X007368Y008180D01*
X004268Y009380D02*
X004268Y010480D01*
X004266Y010497D01*
X004262Y010514D01*
X004255Y010530D01*
X004245Y010544D01*
X004232Y010557D01*
X004218Y010567D01*
X004202Y010574D01*
X004185Y010578D01*
X004168Y010580D01*
X003568Y010580D01*
X003551Y010578D01*
X003534Y010574D01*
X003518Y010567D01*
X003504Y010557D01*
X003491Y010544D01*
X003481Y010530D01*
X003474Y010514D01*
X003470Y010497D01*
X003468Y010480D01*
X003468Y009380D01*
X003470Y009363D01*
X003474Y009346D01*
X003481Y009330D01*
X003491Y009316D01*
X003504Y009303D01*
X003518Y009293D01*
X003534Y009286D01*
X003551Y009282D01*
X003568Y009280D01*
X004168Y009280D01*
X004185Y009282D01*
X004202Y009286D01*
X004218Y009293D01*
X004232Y009303D01*
X004245Y009316D01*
X004255Y009330D01*
X004262Y009346D01*
X004266Y009363D01*
X004268Y009380D01*
X003240Y009311D02*
X003203Y009311D01*
X003240Y009311D02*
X003240Y008674D01*
X003203Y008674D01*
X002886Y008674D02*
X002849Y008674D01*
X002511Y008674D02*
X002474Y008674D01*
X002157Y008674D02*
X002120Y008674D01*
X002120Y009311D01*
X002157Y009311D01*
X002474Y009311D02*
X002886Y009311D01*
X001043Y006668D02*
X000943Y006668D01*
X001043Y006668D02*
X001043Y006568D01*
X000543Y006668D02*
X000443Y006668D01*
X000443Y006568D01*
X000443Y006168D02*
X000443Y006068D01*
X000543Y006068D01*
X000943Y006068D02*
X001043Y006068D01*
X001043Y006168D01*
X001043Y005668D02*
X000943Y005668D01*
X001043Y005668D02*
X001043Y005568D01*
X000543Y005668D02*
X000443Y005668D01*
X000443Y005568D01*
X000443Y005168D02*
X000443Y005068D01*
X000543Y005068D01*
X000943Y005068D02*
X001043Y005068D01*
X001043Y005168D01*
X019036Y010661D02*
X019036Y010761D01*
X019036Y010661D02*
X019136Y010661D01*
X019536Y010661D02*
X019636Y010661D01*
X019636Y010761D01*
X019636Y011161D02*
X019636Y011261D01*
X019536Y011261D01*
X019136Y011261D02*
X019036Y011261D01*
X019036Y011161D01*
M02*
