G75*
%MOIN*%
%OFA0B0*%
%FSLAX24Y24*%
%IPPOS*%
%LPD*%
%AMOC8*
5,1,8,0,0,1.08239X$1,22.5*
%
%ADD10C,0.0000*%
%ADD11C,0.0001*%
%ADD12C,0.0515*%
%ADD13C,0.0600*%
%ADD14OC8,0.0630*%
%ADD15C,0.0520*%
%ADD16C,0.0356*%
%ADD17C,0.0240*%
%ADD18C,0.0120*%
%ADD19C,0.0160*%
%ADD20C,0.0100*%
%ADD21C,0.0531*%
D10*
X001305Y000180D02*
X021305Y000180D01*
X022368Y001243D02*
X022368Y010680D01*
X020764Y011118D02*
X020766Y011155D01*
X020772Y011192D01*
X020781Y011227D01*
X020795Y011262D01*
X020811Y011295D01*
X020832Y011326D01*
X020855Y011355D01*
X020881Y011381D01*
X020910Y011404D01*
X020941Y011425D01*
X020974Y011441D01*
X021009Y011455D01*
X021044Y011464D01*
X021081Y011470D01*
X021118Y011472D01*
X021155Y011470D01*
X021192Y011464D01*
X021227Y011455D01*
X021262Y011441D01*
X021295Y011425D01*
X021326Y011404D01*
X021355Y011381D01*
X021381Y011355D01*
X021404Y011326D01*
X021425Y011295D01*
X021441Y011262D01*
X021455Y011227D01*
X021464Y011192D01*
X021470Y011155D01*
X021472Y011118D01*
X021470Y011081D01*
X021464Y011044D01*
X021455Y011009D01*
X021441Y010974D01*
X021425Y010941D01*
X021404Y010910D01*
X021381Y010881D01*
X021355Y010855D01*
X021326Y010832D01*
X021295Y010811D01*
X021262Y010795D01*
X021227Y010781D01*
X021192Y010772D01*
X021155Y010766D01*
X021118Y010764D01*
X021081Y010766D01*
X021044Y010772D01*
X021009Y010781D01*
X020974Y010795D01*
X020941Y010811D01*
X020910Y010832D01*
X020881Y010855D01*
X020855Y010881D01*
X020832Y010910D01*
X020811Y010941D01*
X020795Y010974D01*
X020781Y011009D01*
X020772Y011044D01*
X020766Y011081D01*
X020764Y011118D01*
X021305Y011743D02*
X001305Y011743D01*
X000243Y010680D02*
X000243Y001243D01*
X004376Y004555D02*
X004378Y004599D01*
X004384Y004643D01*
X004394Y004686D01*
X004407Y004728D01*
X004425Y004768D01*
X004446Y004807D01*
X004470Y004844D01*
X004497Y004879D01*
X004528Y004911D01*
X004561Y004940D01*
X004597Y004966D01*
X004635Y004988D01*
X004675Y005007D01*
X004716Y005023D01*
X004759Y005035D01*
X004802Y005043D01*
X004846Y005047D01*
X004890Y005047D01*
X004934Y005043D01*
X004977Y005035D01*
X005020Y005023D01*
X005061Y005007D01*
X005101Y004988D01*
X005139Y004966D01*
X005175Y004940D01*
X005208Y004911D01*
X005239Y004879D01*
X005266Y004844D01*
X005290Y004807D01*
X005311Y004768D01*
X005329Y004728D01*
X005342Y004686D01*
X005352Y004643D01*
X005358Y004599D01*
X005360Y004555D01*
X005358Y004511D01*
X005352Y004467D01*
X005342Y004424D01*
X005329Y004382D01*
X005311Y004342D01*
X005290Y004303D01*
X005266Y004266D01*
X005239Y004231D01*
X005208Y004199D01*
X005175Y004170D01*
X005139Y004144D01*
X005101Y004122D01*
X005061Y004103D01*
X005020Y004087D01*
X004977Y004075D01*
X004934Y004067D01*
X004890Y004063D01*
X004846Y004063D01*
X004802Y004067D01*
X004759Y004075D01*
X004716Y004087D01*
X004675Y004103D01*
X004635Y004122D01*
X004597Y004144D01*
X004561Y004170D01*
X004528Y004199D01*
X004497Y004231D01*
X004470Y004266D01*
X004446Y004303D01*
X004425Y004342D01*
X004407Y004382D01*
X004394Y004424D01*
X004384Y004467D01*
X004378Y004511D01*
X004376Y004555D01*
X010188Y005680D02*
X010190Y005724D01*
X010196Y005768D01*
X010206Y005811D01*
X010219Y005853D01*
X010237Y005893D01*
X010258Y005932D01*
X010282Y005969D01*
X010309Y006004D01*
X010340Y006036D01*
X010373Y006065D01*
X010409Y006091D01*
X010447Y006113D01*
X010487Y006132D01*
X010528Y006148D01*
X010571Y006160D01*
X010614Y006168D01*
X010658Y006172D01*
X010702Y006172D01*
X010746Y006168D01*
X010789Y006160D01*
X010832Y006148D01*
X010873Y006132D01*
X010913Y006113D01*
X010951Y006091D01*
X010987Y006065D01*
X011020Y006036D01*
X011051Y006004D01*
X011078Y005969D01*
X011102Y005932D01*
X011123Y005893D01*
X011141Y005853D01*
X011154Y005811D01*
X011164Y005768D01*
X011170Y005724D01*
X011172Y005680D01*
X011170Y005636D01*
X011164Y005592D01*
X011154Y005549D01*
X011141Y005507D01*
X011123Y005467D01*
X011102Y005428D01*
X011078Y005391D01*
X011051Y005356D01*
X011020Y005324D01*
X010987Y005295D01*
X010951Y005269D01*
X010913Y005247D01*
X010873Y005228D01*
X010832Y005212D01*
X010789Y005200D01*
X010746Y005192D01*
X010702Y005188D01*
X010658Y005188D01*
X010614Y005192D01*
X010571Y005200D01*
X010528Y005212D01*
X010487Y005228D01*
X010447Y005247D01*
X010409Y005269D01*
X010373Y005295D01*
X010340Y005324D01*
X010309Y005356D01*
X010282Y005391D01*
X010258Y005428D01*
X010237Y005467D01*
X010219Y005507D01*
X010206Y005549D01*
X010196Y005592D01*
X010190Y005636D01*
X010188Y005680D01*
X021264Y009805D02*
X021266Y009842D01*
X021272Y009879D01*
X021281Y009914D01*
X021295Y009949D01*
X021311Y009982D01*
X021332Y010013D01*
X021355Y010042D01*
X021381Y010068D01*
X021410Y010091D01*
X021441Y010112D01*
X021474Y010128D01*
X021509Y010142D01*
X021544Y010151D01*
X021581Y010157D01*
X021618Y010159D01*
X021655Y010157D01*
X021692Y010151D01*
X021727Y010142D01*
X021762Y010128D01*
X021795Y010112D01*
X021826Y010091D01*
X021855Y010068D01*
X021881Y010042D01*
X021904Y010013D01*
X021925Y009982D01*
X021941Y009949D01*
X021955Y009914D01*
X021964Y009879D01*
X021970Y009842D01*
X021972Y009805D01*
X021970Y009768D01*
X021964Y009731D01*
X021955Y009696D01*
X021941Y009661D01*
X021925Y009628D01*
X021904Y009597D01*
X021881Y009568D01*
X021855Y009542D01*
X021826Y009519D01*
X021795Y009498D01*
X021762Y009482D01*
X021727Y009468D01*
X021692Y009459D01*
X021655Y009453D01*
X021618Y009451D01*
X021581Y009453D01*
X021544Y009459D01*
X021509Y009468D01*
X021474Y009482D01*
X021441Y009498D01*
X021410Y009519D01*
X021381Y009542D01*
X021355Y009568D01*
X021332Y009597D01*
X021311Y009628D01*
X021295Y009661D01*
X021281Y009696D01*
X021272Y009731D01*
X021266Y009768D01*
X021264Y009805D01*
D11*
X022367Y010680D02*
X022364Y010744D01*
X022357Y010807D01*
X022347Y010870D01*
X022333Y010933D01*
X022315Y010994D01*
X022294Y011054D01*
X022269Y011113D01*
X022241Y011170D01*
X022209Y011226D01*
X022174Y011279D01*
X022136Y011331D01*
X022095Y011380D01*
X022051Y011426D01*
X022005Y011470D01*
X021956Y011511D01*
X021904Y011549D01*
X021851Y011584D01*
X021795Y011616D01*
X021738Y011644D01*
X021679Y011669D01*
X021619Y011690D01*
X021558Y011708D01*
X021495Y011722D01*
X021432Y011732D01*
X021369Y011739D01*
X021305Y011742D01*
X001305Y011742D02*
X001241Y011739D01*
X001178Y011732D01*
X001115Y011722D01*
X001052Y011708D01*
X000991Y011690D01*
X000931Y011669D01*
X000872Y011644D01*
X000815Y011616D01*
X000759Y011584D01*
X000706Y011549D01*
X000654Y011511D01*
X000605Y011470D01*
X000559Y011426D01*
X000515Y011380D01*
X000474Y011331D01*
X000436Y011279D01*
X000401Y011226D01*
X000369Y011170D01*
X000341Y011113D01*
X000316Y011054D01*
X000295Y010994D01*
X000277Y010933D01*
X000263Y010870D01*
X000253Y010807D01*
X000246Y010744D01*
X000243Y010680D01*
X000243Y001242D02*
X000246Y001178D01*
X000253Y001115D01*
X000263Y001052D01*
X000277Y000989D01*
X000295Y000928D01*
X000316Y000868D01*
X000341Y000809D01*
X000369Y000752D01*
X000401Y000696D01*
X000436Y000643D01*
X000474Y000591D01*
X000515Y000542D01*
X000559Y000496D01*
X000605Y000452D01*
X000654Y000411D01*
X000706Y000373D01*
X000759Y000338D01*
X000815Y000306D01*
X000872Y000278D01*
X000931Y000253D01*
X000991Y000232D01*
X001052Y000214D01*
X001115Y000200D01*
X001178Y000190D01*
X001241Y000183D01*
X001305Y000180D01*
X021305Y000180D02*
X021369Y000183D01*
X021432Y000190D01*
X021495Y000200D01*
X021558Y000214D01*
X021619Y000232D01*
X021679Y000253D01*
X021738Y000278D01*
X021795Y000306D01*
X021851Y000338D01*
X021904Y000373D01*
X021956Y000411D01*
X022005Y000452D01*
X022051Y000496D01*
X022095Y000542D01*
X022136Y000591D01*
X022174Y000643D01*
X022209Y000696D01*
X022241Y000752D01*
X022269Y000809D01*
X022294Y000868D01*
X022315Y000928D01*
X022333Y000989D01*
X022347Y001052D01*
X022357Y001115D01*
X022364Y001178D01*
X022367Y001242D01*
D12*
X021680Y001493D03*
X020899Y001493D03*
X020118Y001493D03*
X019336Y001493D03*
X018555Y001493D03*
X017774Y001493D03*
X016993Y001493D03*
X016211Y001493D03*
X018336Y009118D03*
X019336Y009118D03*
X020336Y009118D03*
D13*
X012805Y007493D03*
X011805Y007493D03*
X010805Y007493D03*
X009805Y007493D03*
X008805Y007493D03*
X007805Y007493D03*
X006805Y007493D03*
X005805Y007493D03*
X004805Y007493D03*
X003805Y007493D03*
X002805Y007493D03*
X001805Y007493D03*
X005305Y006493D03*
X006305Y006493D03*
X005805Y001493D03*
X004805Y001493D03*
X003805Y001493D03*
X002805Y001493D03*
X001805Y001493D03*
X006805Y001493D03*
X007805Y001493D03*
X008805Y001493D03*
X009805Y001493D03*
X010805Y001493D03*
X011805Y001493D03*
X012805Y001493D03*
D14*
X000743Y005368D03*
X000743Y006368D03*
X019336Y010961D03*
D15*
X006868Y008940D02*
X006868Y008420D01*
X005868Y008420D02*
X005868Y008940D01*
X004868Y008940D02*
X004868Y008420D01*
X003868Y008420D02*
X003868Y008940D01*
D16*
X001368Y007930D03*
X001118Y007680D03*
X000868Y007930D03*
X000555Y007680D03*
X004555Y006430D03*
X003805Y005118D03*
X002743Y004618D03*
X001805Y004368D03*
X000618Y003618D03*
X001618Y003368D03*
X000743Y002868D03*
X002305Y002180D03*
X000680Y001555D03*
X001180Y000993D03*
X004680Y002805D03*
X006055Y002180D03*
X007305Y001055D03*
X009305Y001055D03*
X011305Y001055D03*
X013430Y001305D03*
X012493Y002493D03*
X012493Y002993D03*
X010868Y003743D03*
X010618Y004118D03*
X010743Y004680D03*
X008868Y004680D03*
X008305Y004368D03*
X006930Y004243D03*
X007993Y005243D03*
X008180Y006680D03*
X010430Y008493D03*
X010680Y009305D03*
X010243Y010118D03*
X012305Y008868D03*
X012868Y008555D03*
X013555Y009493D03*
X014618Y010243D03*
X013368Y006055D03*
X010555Y002618D03*
D17*
X006055Y002180D02*
X004055Y002180D01*
X003555Y002680D01*
X002868Y002680D01*
X002868Y004243D01*
X002555Y004243D01*
X002368Y004430D01*
X002368Y004805D01*
X003305Y005743D01*
X003305Y009680D01*
X006868Y009680D01*
X009180Y009680D01*
X009993Y010493D01*
X011993Y010493D01*
X012243Y010243D01*
X012305Y010243D01*
X012305Y008868D01*
X010680Y009305D02*
X010430Y009055D01*
X010430Y008493D01*
X012305Y010243D02*
X014618Y010243D01*
X006868Y009680D02*
X006868Y008680D01*
X004805Y007493D02*
X003805Y006493D01*
X003805Y005118D01*
X002930Y004243D01*
X002868Y004243D01*
X002868Y002680D02*
X001493Y002680D01*
X001180Y002368D01*
X001180Y000993D01*
X003305Y009680D02*
X003305Y010368D01*
X003743Y010805D01*
D18*
X000930Y011243D02*
X014305Y011243D01*
X014993Y010555D01*
X014993Y006368D01*
X014680Y006055D01*
X013368Y006055D01*
X013055Y005868D02*
X013055Y007243D01*
X012805Y007493D01*
X013180Y007993D02*
X009055Y007993D01*
X008805Y007743D01*
X008805Y007493D01*
X009805Y007493D02*
X009805Y007180D01*
X009993Y006993D01*
X010993Y006993D01*
X012930Y005055D01*
X012930Y004680D01*
X010743Y004680D01*
X010618Y004118D02*
X009430Y004118D01*
X008868Y004680D01*
X008305Y004368D02*
X008930Y003743D01*
X010868Y003743D01*
X012430Y003055D02*
X008930Y003055D01*
X007743Y004243D01*
X007743Y004555D01*
X008555Y005368D01*
X008555Y006305D01*
X008180Y006680D01*
X007368Y006430D02*
X007368Y008805D01*
X007618Y009055D01*
X009993Y009055D01*
X010243Y009305D01*
X010243Y010118D01*
X010993Y010118D01*
X011305Y009805D01*
X011305Y008680D01*
X011555Y008430D01*
X012743Y008430D01*
X012868Y008555D01*
X013180Y007993D02*
X013555Y008368D01*
X013555Y009493D01*
X011805Y007493D02*
X012868Y006430D01*
X012868Y005743D01*
X013305Y005305D01*
X013305Y002618D01*
X014930Y000993D01*
X017555Y000993D01*
X017774Y001211D01*
X017774Y001493D01*
X018180Y001711D02*
X018368Y001899D01*
X019149Y001899D01*
X019336Y001711D01*
X019336Y001493D01*
X018555Y001493D02*
X018555Y000868D01*
X018305Y000618D01*
X014680Y000618D01*
X012930Y002368D01*
X012930Y004680D01*
X013118Y005180D02*
X013118Y002493D01*
X014805Y000805D01*
X017961Y000805D01*
X018180Y001024D01*
X020680Y000430D02*
X006180Y000430D01*
X005805Y000805D01*
X005805Y001493D01*
X006805Y001493D02*
X006805Y002430D01*
X006430Y002805D01*
X004680Y002805D01*
X006930Y004243D02*
X007805Y003368D01*
X007805Y001493D01*
X010805Y001493D02*
X010805Y002243D01*
X011055Y002493D01*
X012493Y002493D01*
X012493Y002993D02*
X012430Y003055D01*
X013493Y002743D02*
X014118Y002118D01*
X021493Y002118D01*
X021680Y001930D01*
X021680Y001493D01*
X020899Y001493D02*
X020899Y000649D01*
X020680Y000430D01*
X013493Y002743D02*
X013493Y005430D01*
X013055Y005868D01*
X013118Y005180D02*
X010805Y007493D01*
X007368Y006430D02*
X006930Y005993D01*
X005493Y005993D01*
X005305Y006180D01*
X005305Y006493D01*
X005305Y008243D01*
X004868Y008680D01*
X005868Y008680D02*
X006305Y008243D01*
X006305Y006493D01*
X003805Y007493D02*
X003555Y007243D01*
X003555Y005430D01*
X002743Y004618D01*
X002430Y006368D02*
X000743Y006368D01*
X002430Y006368D02*
X002805Y006743D01*
X002805Y007493D01*
X001805Y007493D02*
X001805Y008118D01*
X001618Y008305D01*
X000743Y008305D01*
X000430Y008618D01*
X000430Y010743D01*
X000930Y011243D01*
D19*
X000686Y000623D02*
X000908Y000460D01*
X001170Y000373D01*
X001307Y000360D01*
X005967Y000360D01*
X005605Y000722D01*
X005605Y001099D01*
X005556Y001119D01*
X005432Y001243D01*
X005365Y001405D01*
X005365Y001580D01*
X005432Y001742D01*
X005556Y001866D01*
X005687Y001920D01*
X005023Y001920D01*
X005057Y001903D01*
X005118Y001859D01*
X005171Y001805D01*
X005216Y001744D01*
X005250Y001677D01*
X005273Y001605D01*
X005285Y001530D01*
X005285Y001513D01*
X004825Y001513D01*
X004825Y001472D01*
X004825Y001013D01*
X004843Y001013D01*
X004917Y001024D01*
X004989Y001048D01*
X005057Y001082D01*
X005118Y001126D01*
X005171Y001180D01*
X005216Y001241D01*
X005250Y001308D01*
X005273Y001380D01*
X005285Y001455D01*
X005285Y001472D01*
X004825Y001472D01*
X004785Y001472D01*
X004785Y001013D01*
X004767Y001013D01*
X004693Y001024D01*
X004621Y001048D01*
X004553Y001082D01*
X004492Y001126D01*
X004439Y001180D01*
X004394Y001241D01*
X004360Y001308D01*
X004337Y001380D01*
X004325Y001455D01*
X004325Y001472D01*
X004785Y001472D01*
X004785Y001513D01*
X004325Y001513D01*
X004325Y001530D01*
X004337Y001605D01*
X004360Y001677D01*
X004394Y001744D01*
X004439Y001805D01*
X004492Y001859D01*
X004553Y001903D01*
X004587Y001920D01*
X004003Y001920D01*
X003908Y001960D01*
X003447Y002420D01*
X001600Y002420D01*
X001440Y002260D01*
X001440Y001750D01*
X001556Y001866D01*
X001717Y001932D01*
X001893Y001932D01*
X002054Y001866D01*
X002178Y001742D01*
X002245Y001580D01*
X002245Y001405D01*
X002178Y001243D01*
X002054Y001119D01*
X001893Y001053D01*
X001717Y001053D01*
X001556Y001119D01*
X001440Y001235D01*
X001440Y001182D01*
X001450Y001173D01*
X001498Y001056D01*
X001498Y000929D01*
X001450Y000812D01*
X001360Y000723D01*
X001243Y000674D01*
X001117Y000674D01*
X001000Y000723D01*
X000910Y000812D01*
X000862Y000929D01*
X000862Y001056D01*
X000910Y001173D01*
X000920Y001182D01*
X000920Y002419D01*
X000960Y002515D01*
X001033Y002588D01*
X001033Y002588D01*
X001345Y002900D01*
X001441Y002940D01*
X002608Y002940D01*
X002608Y003983D01*
X002503Y003983D01*
X002408Y004022D01*
X002147Y004283D01*
X002108Y004378D01*
X002108Y004857D01*
X002147Y004952D01*
X002220Y005025D01*
X003045Y005850D01*
X003045Y007076D01*
X002989Y007048D01*
X002917Y007024D01*
X002843Y007013D01*
X002825Y007013D01*
X002825Y007472D01*
X002785Y007472D01*
X002785Y007013D01*
X002767Y007013D01*
X002693Y007024D01*
X002621Y007048D01*
X002553Y007082D01*
X002492Y007126D01*
X002439Y007180D01*
X002394Y007241D01*
X002360Y007308D01*
X002337Y007380D01*
X002325Y007455D01*
X002325Y007472D01*
X002785Y007472D01*
X002785Y007513D01*
X002785Y007972D01*
X002767Y007972D01*
X002693Y007961D01*
X002621Y007937D01*
X002553Y007903D01*
X002492Y007859D01*
X002439Y007805D01*
X002394Y007744D01*
X002360Y007677D01*
X002337Y007605D01*
X002325Y007530D01*
X002325Y007513D01*
X002785Y007513D01*
X002825Y007513D01*
X002825Y007972D01*
X002843Y007972D01*
X002917Y007961D01*
X002989Y007937D01*
X003045Y007909D01*
X003045Y008118D01*
X002005Y008118D01*
X002005Y007886D01*
X002054Y007866D01*
X002178Y007742D01*
X002245Y007580D01*
X002245Y007405D01*
X002178Y007243D01*
X002054Y007119D01*
X001893Y007053D01*
X001717Y007053D01*
X001556Y007119D01*
X001432Y007243D01*
X001365Y007405D01*
X001365Y007580D01*
X001432Y007742D01*
X001556Y007866D01*
X001605Y007886D01*
X001605Y008035D01*
X001535Y008105D01*
X000660Y008105D01*
X000647Y008118D01*
X000422Y008118D01*
X000422Y006748D01*
X000537Y006862D01*
X000732Y006862D01*
X000732Y006378D01*
X000753Y006378D01*
X000753Y006862D01*
X000948Y006862D01*
X001237Y006573D01*
X001237Y006378D01*
X000753Y006378D01*
X000753Y006357D01*
X001237Y006357D01*
X001237Y006162D01*
X000948Y005873D01*
X000753Y005873D01*
X000753Y006357D01*
X000732Y006357D01*
X000732Y005873D01*
X000537Y005873D01*
X000422Y005987D01*
X000422Y005691D01*
X000554Y005822D01*
X000931Y005822D01*
X001197Y005556D01*
X001197Y005179D01*
X000931Y004913D01*
X000554Y004913D01*
X000422Y005044D01*
X000422Y001245D01*
X000435Y001107D01*
X000523Y000846D01*
X000686Y000623D01*
X000662Y000656D02*
X005672Y000656D01*
X005605Y000814D02*
X001450Y000814D01*
X001498Y000973D02*
X005605Y000973D01*
X005544Y001131D02*
X005122Y001131D01*
X005240Y001290D02*
X005413Y001290D01*
X005365Y001448D02*
X005284Y001448D01*
X005273Y001607D02*
X005376Y001607D01*
X005455Y001765D02*
X005200Y001765D01*
X004825Y001448D02*
X004785Y001448D01*
X004337Y001607D02*
X004234Y001607D01*
X004245Y001580D02*
X004178Y001742D01*
X004054Y001866D01*
X003893Y001932D01*
X003717Y001932D01*
X003556Y001866D01*
X003432Y001742D01*
X003365Y001580D01*
X003365Y001405D01*
X003432Y001243D01*
X003556Y001119D01*
X003717Y001053D01*
X003893Y001053D01*
X004054Y001119D01*
X004178Y001243D01*
X004245Y001405D01*
X004245Y001580D01*
X004245Y001448D02*
X004326Y001448D01*
X004370Y001290D02*
X004197Y001290D01*
X004066Y001131D02*
X004488Y001131D01*
X004785Y001131D02*
X004825Y001131D01*
X004825Y001290D02*
X004785Y001290D01*
X004410Y001765D02*
X004155Y001765D01*
X003995Y001924D02*
X003914Y001924D01*
X003785Y002082D02*
X001440Y002082D01*
X001440Y001924D02*
X001696Y001924D01*
X001914Y001924D02*
X002696Y001924D01*
X002717Y001932D02*
X002556Y001866D01*
X002432Y001742D01*
X002365Y001580D01*
X002365Y001405D01*
X002432Y001243D01*
X002556Y001119D01*
X002717Y001053D01*
X002893Y001053D01*
X003054Y001119D01*
X003178Y001243D01*
X003245Y001405D01*
X003245Y001580D01*
X003178Y001742D01*
X003054Y001866D01*
X002893Y001932D01*
X002717Y001932D01*
X002914Y001924D02*
X003696Y001924D01*
X003455Y001765D02*
X003155Y001765D01*
X003234Y001607D02*
X003376Y001607D01*
X003365Y001448D02*
X003245Y001448D01*
X003197Y001290D02*
X003413Y001290D01*
X003544Y001131D02*
X003066Y001131D01*
X002544Y001131D02*
X002066Y001131D01*
X002197Y001290D02*
X002413Y001290D01*
X002365Y001448D02*
X002245Y001448D01*
X002234Y001607D02*
X002376Y001607D01*
X002455Y001765D02*
X002155Y001765D01*
X001455Y001765D02*
X001440Y001765D01*
X000920Y001765D02*
X000422Y001765D01*
X000422Y001607D02*
X000920Y001607D01*
X000920Y001448D02*
X000422Y001448D01*
X000422Y001290D02*
X000920Y001290D01*
X000893Y001131D02*
X000433Y001131D01*
X000480Y000973D02*
X000862Y000973D01*
X000910Y000814D02*
X000546Y000814D01*
X000858Y000497D02*
X005830Y000497D01*
X006079Y000814D02*
X014201Y000814D01*
X014359Y000656D02*
X006237Y000656D01*
X006263Y000630D02*
X006005Y000888D01*
X006005Y001099D01*
X006054Y001119D01*
X006178Y001243D01*
X006245Y001405D01*
X006245Y001580D01*
X006178Y001742D01*
X006058Y001862D01*
X006118Y001862D01*
X006235Y001910D01*
X006325Y002000D01*
X006373Y002117D01*
X006373Y002243D01*
X006325Y002360D01*
X006235Y002450D01*
X006118Y002498D01*
X005992Y002498D01*
X005875Y002450D01*
X005865Y002440D01*
X004163Y002440D01*
X003775Y002827D01*
X003775Y002827D01*
X003702Y002900D01*
X003607Y002940D01*
X003127Y002940D01*
X003127Y004072D01*
X003150Y004095D01*
X003855Y004799D01*
X003868Y004799D01*
X003985Y004848D01*
X004075Y004937D01*
X004123Y005054D01*
X004123Y005181D01*
X004075Y005298D01*
X004065Y005307D01*
X004065Y006385D01*
X004733Y007053D01*
X004893Y007053D01*
X005054Y007119D01*
X005105Y007170D01*
X005105Y006886D01*
X005056Y006866D01*
X004932Y006742D01*
X004865Y006580D01*
X004865Y006405D01*
X004932Y006243D01*
X005056Y006119D01*
X005105Y006099D01*
X005105Y006097D01*
X005410Y005793D01*
X007013Y005793D01*
X007130Y005910D01*
X007567Y006347D01*
X007567Y007115D01*
X007717Y007053D01*
X007893Y007053D01*
X008054Y007119D01*
X008178Y007243D01*
X008245Y007405D01*
X008245Y007580D01*
X008178Y007742D01*
X008054Y007866D01*
X007893Y007932D01*
X007717Y007932D01*
X007567Y007870D01*
X007567Y008118D01*
X008897Y008118D01*
X008722Y007942D01*
X008708Y007929D01*
X008556Y007866D01*
X008432Y007742D01*
X008365Y007580D01*
X008365Y007405D01*
X008432Y007243D01*
X008556Y007119D01*
X008717Y007053D01*
X008893Y007053D01*
X009054Y007119D01*
X009178Y007243D01*
X009245Y007405D01*
X009245Y007580D01*
X009178Y007742D01*
X009133Y007787D01*
X009138Y007793D01*
X009483Y007793D01*
X009432Y007742D01*
X009365Y007580D01*
X009365Y007405D01*
X009432Y007243D01*
X009556Y007119D01*
X009605Y007099D01*
X009605Y007097D01*
X009722Y006980D01*
X009910Y006793D01*
X010910Y006793D01*
X012730Y004972D01*
X012730Y004880D01*
X010992Y004880D01*
X010923Y004950D01*
X010806Y004998D01*
X010679Y004998D01*
X010562Y004950D01*
X010473Y004860D01*
X010424Y004743D01*
X010424Y004617D01*
X010473Y004500D01*
X010542Y004431D01*
X010437Y004387D01*
X010368Y004317D01*
X009513Y004317D01*
X009186Y004645D01*
X009186Y004743D01*
X009137Y004860D01*
X009048Y004950D01*
X008931Y004998D01*
X008804Y004998D01*
X008687Y004950D01*
X008598Y004860D01*
X008549Y004743D01*
X008549Y004617D01*
X008598Y004500D01*
X008687Y004410D01*
X008804Y004362D01*
X008903Y004362D01*
X009230Y004035D01*
X009347Y003918D01*
X010368Y003918D01*
X010437Y003848D01*
X010554Y003799D01*
X010681Y003799D01*
X010798Y003848D01*
X010887Y003937D01*
X010936Y004054D01*
X010936Y004181D01*
X010887Y004298D01*
X010818Y004367D01*
X010923Y004410D01*
X010992Y004480D01*
X012730Y004480D01*
X012730Y003205D01*
X012673Y003262D01*
X012556Y003311D01*
X012429Y003311D01*
X012312Y003262D01*
X012305Y003255D01*
X009013Y003255D01*
X007942Y004325D01*
X007942Y004472D01*
X008638Y005168D01*
X008755Y005285D01*
X008755Y006388D01*
X008498Y006645D01*
X008498Y006743D01*
X008450Y006860D01*
X008360Y006950D01*
X008243Y006998D01*
X008117Y006998D01*
X008000Y006950D01*
X007910Y006860D01*
X007862Y006743D01*
X007862Y006617D01*
X007910Y006500D01*
X008000Y006410D01*
X008117Y006362D01*
X008215Y006362D01*
X008355Y006222D01*
X008355Y005450D01*
X007543Y004638D01*
X007543Y004160D01*
X007660Y004043D01*
X008847Y002855D01*
X012205Y002855D01*
X012223Y002812D01*
X012293Y002742D01*
X012243Y002692D01*
X010972Y002692D01*
X010722Y002442D01*
X010605Y002325D01*
X010605Y001886D01*
X010556Y001866D01*
X010432Y001742D01*
X010365Y001580D01*
X010365Y001405D01*
X010432Y001243D01*
X010556Y001119D01*
X010717Y001053D01*
X010893Y001053D01*
X011054Y001119D01*
X011178Y001243D01*
X011245Y001405D01*
X011245Y001580D01*
X011178Y001742D01*
X011054Y001866D01*
X011005Y001886D01*
X011005Y002160D01*
X011138Y002293D01*
X012243Y002293D01*
X012312Y002223D01*
X012429Y002174D01*
X012556Y002174D01*
X012673Y002223D01*
X012732Y002282D01*
X012847Y002168D01*
X014385Y000630D01*
X006263Y000630D01*
X006005Y000973D02*
X014042Y000973D01*
X013884Y001131D02*
X013066Y001131D01*
X013054Y001119D02*
X013178Y001243D01*
X013245Y001405D01*
X013245Y001580D01*
X013178Y001742D01*
X013054Y001866D01*
X012893Y001932D01*
X012717Y001932D01*
X012556Y001866D01*
X012432Y001742D01*
X012365Y001580D01*
X012365Y001405D01*
X012432Y001243D01*
X012556Y001119D01*
X012717Y001053D01*
X012893Y001053D01*
X013054Y001119D01*
X013197Y001290D02*
X013725Y001290D01*
X013567Y001448D02*
X013245Y001448D01*
X013234Y001607D02*
X013408Y001607D01*
X013250Y001765D02*
X013155Y001765D01*
X013091Y001924D02*
X012914Y001924D01*
X012933Y002082D02*
X011005Y002082D01*
X011005Y001924D02*
X011696Y001924D01*
X011717Y001932D02*
X011556Y001866D01*
X011432Y001742D01*
X011365Y001580D01*
X011365Y001405D01*
X011432Y001243D01*
X011556Y001119D01*
X011717Y001053D01*
X011893Y001053D01*
X012054Y001119D01*
X012178Y001243D01*
X012245Y001405D01*
X012245Y001580D01*
X012178Y001742D01*
X012054Y001866D01*
X011893Y001932D01*
X011717Y001932D01*
X011914Y001924D02*
X012696Y001924D01*
X012455Y001765D02*
X012155Y001765D01*
X012234Y001607D02*
X012376Y001607D01*
X012365Y001448D02*
X012245Y001448D01*
X012197Y001290D02*
X012413Y001290D01*
X012544Y001131D02*
X012066Y001131D01*
X011544Y001131D02*
X011066Y001131D01*
X011197Y001290D02*
X011413Y001290D01*
X011365Y001448D02*
X011245Y001448D01*
X011234Y001607D02*
X011376Y001607D01*
X011455Y001765D02*
X011155Y001765D01*
X010605Y001924D02*
X009914Y001924D01*
X009893Y001932D02*
X009717Y001932D01*
X009556Y001866D01*
X009432Y001742D01*
X009365Y001580D01*
X009365Y001405D01*
X009432Y001243D01*
X009556Y001119D01*
X009717Y001053D01*
X009893Y001053D01*
X010054Y001119D01*
X010178Y001243D01*
X010245Y001405D01*
X010245Y001580D01*
X010178Y001742D01*
X010054Y001866D01*
X009893Y001932D01*
X009696Y001924D02*
X008914Y001924D01*
X008893Y001932D02*
X009054Y001866D01*
X009178Y001742D01*
X009245Y001580D01*
X009245Y001405D01*
X009178Y001243D01*
X009054Y001119D01*
X008893Y001053D01*
X008717Y001053D01*
X008556Y001119D01*
X008432Y001243D01*
X008365Y001405D01*
X008365Y001580D01*
X008432Y001742D01*
X008556Y001866D01*
X008717Y001932D01*
X008893Y001932D01*
X008696Y001924D02*
X008005Y001924D01*
X008005Y001886D02*
X008005Y003450D01*
X007888Y003567D01*
X007248Y004207D01*
X007248Y004306D01*
X007200Y004423D01*
X007110Y004512D01*
X006993Y004561D01*
X006867Y004561D01*
X006750Y004512D01*
X006660Y004423D01*
X006612Y004306D01*
X006612Y004179D01*
X006660Y004062D01*
X006750Y003973D01*
X006867Y003924D01*
X006965Y003924D01*
X007605Y003285D01*
X007605Y001886D01*
X007556Y001866D01*
X007432Y001742D01*
X007365Y001580D01*
X007365Y001405D01*
X007432Y001243D01*
X007556Y001119D01*
X007717Y001053D01*
X007893Y001053D01*
X008054Y001119D01*
X008178Y001243D01*
X008245Y001405D01*
X008245Y001580D01*
X008178Y001742D01*
X008054Y001866D01*
X008005Y001886D01*
X008155Y001765D02*
X008455Y001765D01*
X008376Y001607D02*
X008234Y001607D01*
X008245Y001448D02*
X008365Y001448D01*
X008413Y001290D02*
X008197Y001290D01*
X008066Y001131D02*
X008544Y001131D01*
X009066Y001131D02*
X009544Y001131D01*
X009413Y001290D02*
X009197Y001290D01*
X009245Y001448D02*
X009365Y001448D01*
X009376Y001607D02*
X009234Y001607D01*
X009155Y001765D02*
X009455Y001765D01*
X010155Y001765D02*
X010455Y001765D01*
X010376Y001607D02*
X010234Y001607D01*
X010245Y001448D02*
X010365Y001448D01*
X010413Y001290D02*
X010197Y001290D01*
X010066Y001131D02*
X010544Y001131D01*
X010605Y002082D02*
X008005Y002082D01*
X008005Y002241D02*
X010605Y002241D01*
X010679Y002399D02*
X008005Y002399D01*
X008005Y002558D02*
X010837Y002558D01*
X011086Y002241D02*
X012295Y002241D01*
X012690Y002241D02*
X012774Y002241D01*
X012266Y002716D02*
X008005Y002716D01*
X008005Y002875D02*
X008828Y002875D01*
X008669Y003033D02*
X008005Y003033D01*
X008005Y003192D02*
X008511Y003192D01*
X008352Y003350D02*
X008005Y003350D01*
X007947Y003509D02*
X008194Y003509D01*
X008035Y003667D02*
X007788Y003667D01*
X007877Y003826D02*
X007630Y003826D01*
X007718Y003984D02*
X007471Y003984D01*
X007560Y004143D02*
X007313Y004143D01*
X007248Y004301D02*
X007543Y004301D01*
X007543Y004460D02*
X007163Y004460D01*
X007543Y004618D02*
X005540Y004618D01*
X005540Y004689D02*
X005540Y004421D01*
X005437Y004174D01*
X005248Y003985D01*
X005001Y003883D01*
X004734Y003883D01*
X004487Y003985D01*
X004298Y004174D01*
X004195Y004421D01*
X004195Y004689D01*
X004298Y004936D01*
X004487Y005125D01*
X004734Y005227D01*
X005001Y005227D01*
X005248Y005125D01*
X005437Y004936D01*
X005540Y004689D01*
X005503Y004777D02*
X007681Y004777D01*
X007840Y004935D02*
X005438Y004935D01*
X005280Y005094D02*
X007998Y005094D01*
X008157Y005252D02*
X004094Y005252D01*
X004065Y005411D02*
X008315Y005411D01*
X008355Y005569D02*
X004065Y005569D01*
X004065Y005728D02*
X008355Y005728D01*
X008355Y005886D02*
X007106Y005886D01*
X007265Y006045D02*
X008355Y006045D01*
X008355Y006203D02*
X007423Y006203D01*
X007567Y006362D02*
X008216Y006362D01*
X007902Y006520D02*
X007567Y006520D01*
X007567Y006679D02*
X007862Y006679D01*
X007901Y006837D02*
X007567Y006837D01*
X007567Y006996D02*
X008110Y006996D01*
X008250Y006996D02*
X009707Y006996D01*
X009521Y007154D02*
X009089Y007154D01*
X009207Y007313D02*
X009403Y007313D01*
X009365Y007471D02*
X009245Y007471D01*
X009224Y007630D02*
X009386Y007630D01*
X009478Y007788D02*
X009133Y007788D01*
X008726Y007947D02*
X007567Y007947D01*
X007567Y008105D02*
X008885Y008105D01*
X008478Y007788D02*
X008132Y007788D01*
X008224Y007630D02*
X008386Y007630D01*
X008365Y007471D02*
X008245Y007471D01*
X008207Y007313D02*
X008403Y007313D01*
X008521Y007154D02*
X008089Y007154D01*
X008459Y006837D02*
X009865Y006837D01*
X010299Y006250D02*
X010546Y006352D01*
X010814Y006352D01*
X011061Y006250D01*
X011250Y006061D01*
X011352Y005814D01*
X011352Y005546D01*
X011250Y005299D01*
X011061Y005110D01*
X010814Y005008D01*
X010546Y005008D01*
X010299Y005110D01*
X010110Y005299D01*
X010008Y005546D01*
X010008Y005814D01*
X010110Y006061D01*
X010299Y006250D01*
X010252Y006203D02*
X008755Y006203D01*
X008755Y006045D02*
X010103Y006045D01*
X010038Y005886D02*
X008755Y005886D01*
X008755Y005728D02*
X010008Y005728D01*
X010008Y005569D02*
X008755Y005569D01*
X008755Y005411D02*
X010064Y005411D01*
X010157Y005252D02*
X008722Y005252D01*
X008564Y005094D02*
X010340Y005094D01*
X010548Y004935D02*
X009062Y004935D01*
X009172Y004777D02*
X010438Y004777D01*
X010424Y004618D02*
X009212Y004618D01*
X009371Y004460D02*
X010513Y004460D01*
X010884Y004301D02*
X012730Y004301D01*
X012730Y004460D02*
X010972Y004460D01*
X010936Y004143D02*
X012730Y004143D01*
X012730Y003984D02*
X010907Y003984D01*
X010744Y003826D02*
X012730Y003826D01*
X012730Y003667D02*
X008601Y003667D01*
X008759Y003509D02*
X012730Y003509D01*
X012730Y003350D02*
X008918Y003350D01*
X008442Y003826D02*
X010491Y003826D01*
X009281Y003984D02*
X008284Y003984D01*
X008125Y004143D02*
X009122Y004143D01*
X008964Y004301D02*
X007967Y004301D01*
X007942Y004460D02*
X008638Y004460D01*
X008549Y004618D02*
X008088Y004618D01*
X008247Y004777D02*
X008563Y004777D01*
X008673Y004935D02*
X008405Y004935D01*
X006697Y004460D02*
X005540Y004460D01*
X005490Y004301D02*
X006612Y004301D01*
X006627Y004143D02*
X005406Y004143D01*
X005245Y003984D02*
X006739Y003984D01*
X007064Y003826D02*
X003127Y003826D01*
X003127Y003984D02*
X004490Y003984D01*
X004329Y004143D02*
X003198Y004143D01*
X003356Y004301D02*
X004245Y004301D01*
X004195Y004460D02*
X003515Y004460D01*
X003673Y004618D02*
X004195Y004618D01*
X004232Y004777D02*
X003832Y004777D01*
X004072Y004935D02*
X004297Y004935D01*
X004455Y005094D02*
X004123Y005094D01*
X004065Y005886D02*
X005316Y005886D01*
X005158Y006045D02*
X004065Y006045D01*
X004065Y006203D02*
X004972Y006203D01*
X004883Y006362D02*
X004065Y006362D01*
X004200Y006520D02*
X004865Y006520D01*
X004906Y006679D02*
X004359Y006679D01*
X004517Y006837D02*
X005027Y006837D01*
X005105Y006996D02*
X004676Y006996D01*
X005089Y007154D02*
X005105Y007154D01*
X003045Y006996D02*
X000422Y006996D01*
X000422Y007154D02*
X001521Y007154D01*
X001403Y007313D02*
X000422Y007313D01*
X000422Y007471D02*
X001365Y007471D01*
X001386Y007630D02*
X000422Y007630D01*
X000422Y007788D02*
X001478Y007788D01*
X001605Y007947D02*
X000422Y007947D01*
X000422Y008105D02*
X000660Y008105D01*
X002005Y008105D02*
X003045Y008105D01*
X003045Y007947D02*
X002961Y007947D01*
X002825Y007947D02*
X002785Y007947D01*
X002649Y007947D02*
X002005Y007947D01*
X002132Y007788D02*
X002426Y007788D01*
X002345Y007630D02*
X002224Y007630D01*
X002245Y007471D02*
X002325Y007471D01*
X002359Y007313D02*
X002207Y007313D01*
X002089Y007154D02*
X002465Y007154D01*
X002785Y007154D02*
X002825Y007154D01*
X002825Y007313D02*
X002785Y007313D01*
X002785Y007471D02*
X002825Y007471D01*
X002825Y007630D02*
X002785Y007630D01*
X002785Y007788D02*
X002825Y007788D01*
X003045Y006837D02*
X000973Y006837D01*
X000753Y006837D02*
X000732Y006837D01*
X000732Y006679D02*
X000753Y006679D01*
X000753Y006520D02*
X000732Y006520D01*
X001132Y006679D02*
X003045Y006679D01*
X003045Y006520D02*
X001237Y006520D01*
X000753Y006362D02*
X003045Y006362D01*
X003045Y006203D02*
X001237Y006203D01*
X001120Y006045D02*
X003045Y006045D01*
X003045Y005886D02*
X000961Y005886D01*
X001026Y005728D02*
X002922Y005728D01*
X002764Y005569D02*
X001184Y005569D01*
X001197Y005411D02*
X002605Y005411D01*
X002447Y005252D02*
X001197Y005252D01*
X001112Y005094D02*
X002288Y005094D01*
X002140Y004935D02*
X000953Y004935D01*
X000532Y004935D02*
X000422Y004935D01*
X000422Y004777D02*
X002108Y004777D01*
X002108Y004618D02*
X000422Y004618D01*
X000422Y004460D02*
X002108Y004460D01*
X002140Y004301D02*
X000422Y004301D01*
X000422Y004143D02*
X002287Y004143D01*
X002500Y003984D02*
X000422Y003984D01*
X000422Y003826D02*
X002608Y003826D01*
X002608Y003667D02*
X000422Y003667D01*
X000422Y003509D02*
X002608Y003509D01*
X002608Y003350D02*
X000422Y003350D01*
X000422Y003192D02*
X002608Y003192D01*
X002608Y003033D02*
X000422Y003033D01*
X000422Y002875D02*
X001319Y002875D01*
X001161Y002716D02*
X000422Y002716D01*
X000422Y002558D02*
X001002Y002558D01*
X000920Y002399D02*
X000422Y002399D01*
X000422Y002241D02*
X000920Y002241D01*
X000920Y002082D02*
X000422Y002082D01*
X000422Y001924D02*
X000920Y001924D01*
X001440Y002241D02*
X003627Y002241D01*
X003468Y002399D02*
X001579Y002399D01*
X003127Y003033D02*
X004458Y003033D01*
X004500Y003075D02*
X004410Y002985D01*
X004362Y002868D01*
X004362Y002742D01*
X004410Y002625D01*
X004500Y002535D01*
X004617Y002487D01*
X004743Y002487D01*
X004860Y002535D01*
X004930Y002605D01*
X006347Y002605D01*
X006605Y002347D01*
X006605Y001886D01*
X006556Y001866D01*
X006432Y001742D01*
X006365Y001580D01*
X006365Y001405D01*
X006432Y001243D01*
X006556Y001119D01*
X006717Y001053D01*
X006893Y001053D01*
X007054Y001119D01*
X007178Y001243D01*
X007245Y001405D01*
X007245Y001580D01*
X007178Y001742D01*
X007054Y001866D01*
X007005Y001886D01*
X007005Y002513D01*
X006888Y002630D01*
X006513Y003005D01*
X004930Y003005D01*
X004860Y003075D01*
X004743Y003123D01*
X004617Y003123D01*
X004500Y003075D01*
X004364Y002875D02*
X003728Y002875D01*
X003887Y002716D02*
X004373Y002716D01*
X004478Y002558D02*
X004045Y002558D01*
X004882Y002558D02*
X006395Y002558D01*
X006286Y002399D02*
X006553Y002399D01*
X006605Y002241D02*
X006373Y002241D01*
X006359Y002082D02*
X006605Y002082D01*
X006605Y001924D02*
X006248Y001924D01*
X006155Y001765D02*
X006455Y001765D01*
X006376Y001607D02*
X006234Y001607D01*
X006245Y001448D02*
X006365Y001448D01*
X006413Y001290D02*
X006197Y001290D01*
X006066Y001131D02*
X006544Y001131D01*
X007066Y001131D02*
X007544Y001131D01*
X007413Y001290D02*
X007197Y001290D01*
X007245Y001448D02*
X007365Y001448D01*
X007376Y001607D02*
X007234Y001607D01*
X007155Y001765D02*
X007455Y001765D01*
X007605Y001924D02*
X007005Y001924D01*
X007005Y002082D02*
X007605Y002082D01*
X007605Y002241D02*
X007005Y002241D01*
X007005Y002399D02*
X007605Y002399D01*
X007605Y002558D02*
X006960Y002558D01*
X006802Y002716D02*
X007605Y002716D01*
X007605Y002875D02*
X006643Y002875D01*
X007605Y003033D02*
X004902Y003033D01*
X003127Y003192D02*
X007605Y003192D01*
X007540Y003350D02*
X003127Y003350D01*
X003127Y003509D02*
X007381Y003509D01*
X007223Y003667D02*
X003127Y003667D01*
X000459Y005728D02*
X000422Y005728D01*
X000422Y005886D02*
X000524Y005886D01*
X000732Y005886D02*
X000753Y005886D01*
X000753Y006045D02*
X000732Y006045D01*
X000732Y006203D02*
X000753Y006203D01*
X000512Y006837D02*
X000422Y006837D01*
X008498Y006679D02*
X011024Y006679D01*
X011182Y006520D02*
X008623Y006520D01*
X008755Y006362D02*
X011341Y006362D01*
X011499Y006203D02*
X011108Y006203D01*
X011257Y006045D02*
X011658Y006045D01*
X011816Y005886D02*
X011322Y005886D01*
X011352Y005728D02*
X011975Y005728D01*
X012133Y005569D02*
X011352Y005569D01*
X011296Y005411D02*
X012292Y005411D01*
X012450Y005252D02*
X011203Y005252D01*
X011020Y005094D02*
X012609Y005094D01*
X012730Y004935D02*
X010937Y004935D01*
X001544Y001131D02*
X001467Y001131D01*
D20*
X018180Y001024D02*
X018180Y001711D01*
D21*
X003743Y010805D03*
M02*
